<?xml version="1.0" encoding="UTF-8"?>
<svg xmlns="http://www.w3.org/2000/svg" version="1.1" viewBox="0 0 841.9 202.6">
  <defs>
    <style>
      .cls-1 {
        fill: #fff;
      }

      .cls-1, .cls-2 {
        fill-rule: evenodd;
      }

      .cls-3 {
        fill: #ff9c29;
      }

      .cls-4, .cls-2 {
        fill: #002246;
      }
    </style>
  </defs>
  <!-- Generator: Adobe Illustrator 28.7.1, SVG Export Plug-In . SVG Version: 1.2.0 Build 142)  -->
  <g>
    <g id="Laag_1">
      <path class="cls-1" d="M158.8,56.1l6.6-7.4,11.1-5.1,9.4.7,7.3,4.1,8.3,5.8,4.2,7.9,2.8-5.7,7.1-.9-5.2,13.9,3.5,40.7h-9.3l-2.4,20.5s7.4,23.5,7.2,24.2-4.9,10-4.9,10l-15.5,2.5-9.2,2.2-22.5-4.7-3.4,2.2-3.2-2-26.1-1.9-6.9-4.3-5.9-20.5,12.1-12s7,18.5,7.3,18.6,24.2,12.1,24.2,12.1l10.2-5.2,4.8-10.7-7.6-31.5-4.3-53.4Z"/>
      <g>
        <g>
          <path class="cls-4" d="M457.7,85.9c.5.6.7,1.4,1.1,2s.6,1.4.9,2,1,1.2,1.2,1.9.1,1.5.1,2.2-.6,1.3-.8,2,.3,1.7,0,2.4-.9,1.2-1.3,1.8-1.4.8-1.8,1.4-.8,1.3-1.2,1.9-.5,1.4-.9,2.1-1.1,1.1-1.4,1.8-.2,1.5-.5,2.2-.4,1.4-.6,2.1c-.2.7-.5,1.4-.7,2.1s-.5,1.4-.7,2.1,0,1.5-.1,2.2-.7,1.3-.9,2-.5,1.4-.6,2.1-.5,1.4-.7,2.1-.1,1.5-.3,2.2-.7,1.3-.9,2,.5,1.6.3,2.3-1,1.3-1.1,2-.2,1.4-.3,2.2.4,1.5.3,2.2-.8,1.4-.9,2.1-.1,1.4-.2,2.2.2,1.5.1,2.2,0,1.4,0,2.2.2,1.5.2,2.2,0,1.4,0,2.2-.3,1.4-.3,2.2,0,1.4,0,2.2,0,1.5,0,2.2-.2,1.8-.2,2.5c.8.8,1.1,0,2.4.4s1.3.4,2.1.6,1.5.1,2.2.4,1,1.1,1.6,1.5,1.6.4,2,1,.9,1.4.9,2.1c0,.5-.2,1.3-.4,2.2s-1,1.1-1.2,1.8-.2,1.4-.6,2-.6,1.3-.9,1.9-.4,1.5-.9,2-1,1.2-1.5,1.6-1.3.8-1.9,1.2-1.4.6-2,.7-1.5.6-2.2.4-1.3-.6-2-1-.7-1.3-1.3-1.8-1.6-.4-2.1-1-.5-1.4-.9-2c-.4-.6-.9-1.1-1.2-1.8s-.8-1.3-1-2-.2-1.5-.3-2.2.3-1.5.2-2.2-.6-1.4-.7-2.1.5-1.5.4-2.2,0-1.4,0-2.2-.1-1.4,0-2.2.1-1.4.1-2.2-.5-1.5-.5-2.2.1-1.4.2-2.2.2-1.4.3-2.2.4-1.4.5-2.1.6-1.4.7-2.1,0-1.4.2-2.2-.3-1.5-.1-2.2.9-1.3,1-2-.1-1.5,0-2.2.1-1.5.3-2.2.8-1.3.9-2-.3-1.6-.2-2.3.3-1.4.4-2.1.5-1.4.7-2.1,1-1.2,1.2-1.9.1-1.5.3-2.2-.2-1.6,0-2.2.4-1.4.6-2.1.6-1.4.8-2,.5-1.4.7-2.1.7-1.3.9-2,0-1.6.1-2.2.5-1.4.7-2.1.1-1.6.2-2.2c.2-.7.5-1.4.7-2.1s1-1.3,1.2-2,0-1.5.2-2.3.8-1.3,1.1-2-.2-1.7,0-2.3.8-1.3,1-2,.2-1.6.5-2.2,1.3-1.1,1.6-1.7,1-1.1,1.5-1.4,1.1-1,1.9-.7,1.4.4,2,1.2Z"/>
          <path class="cls-4" d="M416.7,134.6c0,.8-.4,1.6-.3,2.3s1,1.2,1.4,1.8.9,1,1.6,1.4,1,1.2,1.8,1.4,1.4.3,2.2.4,1.4.2,2.2.3,1.4.2,2.2.3,1.5,0,2.2,0,1.5.3,2.2.3,1.5-.3,2.2-.3,1.5,0,2.2,0,1.5,0,2.2,0,1.5,0,2.2,0c.7,0,1.4-.4,2.1-.4s1.4,0,2.1,0,1.4-.5,2.1-.6,1.5.6,2.2.5,1.4-.4,2.1-.5,1.4-.5,2.1-.6,1.4.1,2.1,0,1.4,0,2.1,0,1.4-.6,2-.7,1.4,0,2.1-.2,1.5.1,2.1,0,1.3-1,2-1.1,1.4-.1,2.1-.2,1.5.3,2.2.1,1.4-.4,2.1-.5,1.3-.6,2-.7,1.5,0,2.1-.1,1.3-.7,2-.8,1.4-.4,2-.6,1.4-.2,2.1-.4,1.5-.3,2.1-.4c.6-.2,1.2-.8,1.8-1s1.4-.2,2-.4,1.3-.5,1.9-.7,1.3-.5,1.9-.8,1.1-.9,1.7-1.3,1.4-.6,1.8-1.1.4-1.5.6-2,1-1.2.9-1.9-.4-1.3-.8-2c-.4-.6-1.2-.9-1.7-1.4s-.6-1.5-1-2-1.2-1-1.8-1.3-1.5-.4-2.2-.5-1.4,0-2.1.2-1.2.7-1.9,1-1.2.7-1.8,1.2-1.3.6-1.9,1.1-1.1.9-1.7,1.4-1,1-1.6,1.4-1.3.7-1.9,1.1-1,1-1.6,1.5-1.1.8-1.7,1.2-1,1.1-1.6,1.4-1.5.3-2.1.6-1,1.1-1.7,1.4c-.6.3-1.3.5-2,.8s-1.4.4-2,.5-1.5-.2-2.2,0-1.3.5-2,.7-1.4.3-2.1.4-1.3.6-2,.7-1.4.2-2.1.2-1.4,0-2.1,0-1.4,0-2.1,0-1.4.4-2.1.5-1.4-.1-2.1,0-1.4-.5-2.1-.5-1.4.8-2.1.8-1.4-.4-2.1-.4-1.4.2-2.1.2c-.7,0-1.5.2-2.2.1s-1.4-.4-2.1-.5-1.3-.8-2-1-1.5,0-2.2-.3-1.2-.9-1.9-1.2-1.4-.6-2-.8-1.4-.5-2.1-.7-1.4-.6-2.1-.7-1.5.2-2.2.3-1.1.4-1.4,1.1-.7,1.1-.7,2Z"/>
          <path class="cls-4" d="M487.5,93.6c.6-.4,1-1.1,1.5-1.5s1.2-.9,1.7-1.3,1.2-.8,1.7-1.3,1.1-1,1.7-1.4,1.3-.8,1.9-1.1,1.3-.6,2-.9,1.4-.5,2.1-.4,1.4.2,2,.7.9.9,1.4,1.6c.4.6.9,1.1,1.2,1.7s.5,1.4.5,2-.3,1.3-.5,2-.6,1.2-1.1,1.7-.9,1-1.5,1.5-1.1.8-1.6,1.3-1.1.8-1.7,1.3-1.2.7-1.8,1.1c-.6.4-1.1.9-1.6,1.3s-1.1.8-1.6,1.3-1.1.9-1.6,1.3-1.1.8-1.6,1.2-1.1.9-1.6,1.2-1.2.7-1.8.9-1.3.5-2,.6-1.3-.3-2-.5-1.2-.5-1.8-.9c-.6-.5-1.2-1-1.5-1.5s-.4-1.4-.4-2.1.3-1.3.6-2,.6-1.3,1-1.9.9-1.1,1.4-1.6,1.1-.9,1.6-1.4.9-1.1,1.5-1.6,1.3-.8,1.8-1.2Z"/>
          <path class="cls-4" d="M687.8,98.4c.6-.4,1.1-.9,1.7-1.4s1.1-.9,1.6-1.4,1-1,1.6-1.5,1.2-.8,1.8-1.2,1.3-.8,1.9-1.1,1.3-.8,1.9-1,1.5-.4,2.1-.3,1.3.4,2,.8,1.2.7,1.7,1.4c.4.6.7,1.3,1,1.9s.4,1.4.4,2,0,1.4-.3,2-.7,1.1-1.2,1.7-.9.9-1.5,1.4-1,.9-1.6,1.4-1.1.8-1.7,1.2-1.2.7-1.8,1.1c-.6.4-1,1-1.5,1.4s-1.1.9-1.6,1.3-1.2.7-1.7,1.2-1.1.9-1.6,1.3-1.1.8-1.7,1.2-1.2.7-1.8.9-1.3.5-2,.5-1.3-.1-2-.4-1.2-.5-1.8-.9c-.6-.5-1.1-1.1-1.4-1.6s-.5-1.3-.4-2,.3-1.3.6-2,.6-1.3,1-1.9.9-1.1,1.4-1.6.9-1.1,1.4-1.6,1.2-.8,1.8-1.2,1.1-1,1.6-1.4Z"/>
          <g>
            <path class="cls-4" d="M574,136.3c-.7.2-1.4.4-2.1.7s-1.7,0-2.3.4-1.1,1.1-1.8,1.5-1.1,1.1-1.7,1.5-.9,1.3-1.5,1.7-1.2.9-1.8,1.3-1.5.6-2,1.1-.9,1.3-1.4,1.8-1.3.9-1.7,1.4c-1,1-.2,1.8-1.2,1.2s.3-.4.5-1.7-.3-1.5-.2-2.3-.2-1.6,0-2.3c0-.6.4-1.3.2-2.1s0-1.6-.3-2.3-1.5-.6-2.1-1.1-.7-1.7-1.5-1.9-1.5,0-2.3,0-1.4.1-2.2.3-1.4.3-2.1.5c-1,.3-1.3.9-1.7,1.3s-.5,1-.9,1.9-.3,1.3-.7,2.1-.6,1.2-1.1,1.9-.7,1.2-1.2,1.9-1,1-1.5,1.6-.5,1.4-1,2-1.3.8-1.8,1.4-1.1.9-1.6,1.5-.7,1.3-1.2,1.9c-.5.6-1.3.9-1.8,1.4s-.5,1.7-1,2.2-1.6.5-2.1,1-.8,1.4-1.4,1.8-1.6.4-2.2.8-.9,1.4-1.5,1.7-1.6.3-2.2.6-1.1,1.3-1.7,1.6-1.7-.2-2.3,0-1.5.3-2.1.3-1.5,0-2.1,0-1.4-.3-2-.5c-1.3-.4-2.1.7-2.4-.4.5-.2,1.4-.6,2.1-1.1s1.4-.4,2-.8,1.2-.7,1.8-1.2.5-1.6,1.1-2.1,1.4-.6,1.9-1.1.7-1.3,1.2-1.8.9-1.1,1.3-1.7,1.5-.7,1.9-1.2.5-1.4.9-2,1-1.1,1.4-1.7.3-1.5.5-2.1,1.3-1.1,1.5-1.8-.6-1.6-.6-2.3,0-1.3-.2-2-.2-1.3-.5-2,0-1.6-.4-2.2-.8-1.3-1.4-1.8c-.5-.5-1.4-.7-1.9-1.1s-1.5-.4-2.1-.8-1.2-.8-1.8-1.1-1.3-.7-1.9-.9-1.4-.3-2.1-.4-1.4-.6-2.2-.6-1.5,0-2.2.2-1.2,1.3-1.9,1.5-1.5-.1-2.2.1-1.3.7-1.9,1-1,1-1.7,1.4-1.5.2-2.1.6-1.4.5-2,1-.8,1.3-1.3,1.8-1.5.5-2,1-.4,1.6-.9,2.1c-.5.6-1,1.1-1.4,1.7s-.5,1.4-.8,2.1-1.5,1-1.8,1.7-.5,1.5-.7,2.2.4,1.6.2,2.4-.5,1.4-.6,2.2-.7,1.5-.8,2.2.9,1.6.9,2.3c0,1.4.6,1.6,0,2.5-.7,0-1.9.3-2.6,0s-1.3-.6-1.9-1-.6-1.4-1.1-1.8-.8-1-1-1.6-.8-1.2-.7-1.8c0-.5,0-1.3.4-2.1s1.3-.9,1.5-1.6-.5-1.6-.3-2.3,1.2-1.2,1.3-1.8-.6-1.4-.8-2-.5-1-1.2-1.4-1.1-.6-1.9-.6c-.8,0-1.5-.5-2.2-.4s-1.3.9-2,1.1-1.1.9-1.6,1.3-1,.8-1.5,1.4-.6,1.1-1,1.8-1.1,1-1.3,1.7,0,1.4-.1,2.1-.8,1.3-.8,2.1.5,1.4.5,2.1.6,1.3.7,2.1-.6,1.5-.5,2.2.1,1.5.3,2.1,1.4,1,1.6,1.7.2,1.5.5,2.1.1,1.6.5,2.2c.4.6,1.2,1.1,1.7,1.6s1.5.5,2.2.9,1.1,1,1.9,1.3,1.5.3,2.2.4,1.4.7,2.2.8,1.5.2,2.3.2,1.5-.6,2.3-.6,1.5,0,2.2-.1,1.6.5,2.3.5c1.4-.2,2-1.6,1.8-.5s-.6,1.1-.2,2.2.8.8,1.8,1.3,1.2.4,2.1.6,1.3,1,2.1,1.1,1.5,0,2.3,0,1.5-.4,2.3-.4c.7,0,1.4-.2,2.2-.2s1.4-.2,2.2-.3,1.4-.3,2.1-.5,1.5-.2,2.2-.5,1.1-1.1,1.7-1.5,1.2-.8,1.8-1.2,1.3-.7,1.9-1.1,1.7-.2,2.3-.6.9-1.3,1.5-1.7,1-1.1,1.6-1.5,1.2-.8,1.8-1.3,1.1-1,1.6-1.5.9-1.2,1.4-1.7.9-1.2,1.4-1.7,1.6-.5,2.1-1.1,1.1-1.1,1.6-1.6.4-1.8.8-2.2c.9-1.1,1-.5,2-.9,0,.4,0,.8-.1,1.7s-.8,1.3-.8,2.1,1,1.5,1,2.2-.8,1.4-.8,2.2.3,1.4.3,2.2-.1,1.5,0,2.2-.4,1.5-.3,2.2,1.2,1.3,1.3,2,.3,1.4.5,2.1.2,1.5.5,2.1c.4.7.8,1.1,1.4,1.5s1.1,1,1.8,1.2,1.4-.4,2.2-.4,1.6.9,2.3.8,1.6-1.2,2.1-1.2c.8,0,.6-.2.8-1.2s.5-1.2.5-2.1.5-1.3.6-2.1-.2-1.4-.1-2.2.7-1.3.9-2-.2-1.5,0-2.2.6-1.3.9-2,.9-1.2,1.2-1.8.8-1.1,1.2-1.8.2-1.6.6-2.2.9-1.1,1.3-1.7.7-1.3,1.2-1.9,1-1.1,1.5-1.6,1.3-.7,1.8-1.2,1.5-.5,2.1-.9c.6-.5,1.1-.9,1.7-1.4s.8-1.5,1.4-1.9,1.1-1,1.8-1.4,1.4-.7,2-1,1.5-.4,2.2-.6,1.5-.4,2.1-.6,1.6.5,2.3.4,1.4-1.1,2.1-1.1,1.5,0,2.2,0,1.4,1,2.1,1.1,1.6-.3,2.2-.2,1.5.1,2.1.2,1.6.7,2.2.5.9-1.1,1.4-1.8.8-1.1,1-1.9c.2-.8,0-1.5,0-2.1s.1-1.5,0-2.1-.9-1-1.4-1.4-.8-1.1-1.5-1.3-1.3-.7-2-.7-1.4,0-2.1,0-1.4-.3-2.1-.2-1.4.3-2.1.4-1.2,1.1-1.9,1.2-1.6-.7-2.2-.5-1.2,1-1.9,1.1ZM501.1,154.8c-.4-1,0-.9.3-2.2s1-1.1,1.2-1.9,0-1.4.4-2.1.3-1.4.7-2,.5-1.5,1.1-2,1.3-.9,2-1.1,1.5,0,2.2,0,1.4-.4,2.1-.2c.9.2,1.3.7,1.5,1.3s-.4,1-.7,1.7-.5,1.1-1,1.7-.4,1.3-.9,1.9-.7,1.3-1.2,1.7-1.3.6-1.8,1-1.4.3-2,.7-.9,1.5-1.5,1.7-1.8,0-2.3-.2Z"/>
            <path class="cls-4" d="M574,136.3c-.7.2-1.4.4-2.1.7s-1.7,0-2.3.4-1.1,1.1-1.8,1.5-1.1,1.1-1.7,1.5-.9,1.3-1.5,1.7-1.2.9-1.8,1.3-1.5.6-2,1.1-.9,1.3-1.4,1.8-1.3.9-1.7,1.4c-1,1-.2,1.8-1.2,1.2s.3-.4.5-1.7-.3-1.5-.2-2.3-.2-1.6,0-2.3c0-.6.4-1.3.2-2.1s0-1.6-.3-2.3-1.5-.6-2.1-1.1-.7-1.7-1.5-1.9-1.5,0-2.3,0-1.4.1-2.2.3-1.4.3-2.1.5c-1,.3-1.3.9-1.7,1.3s-.5,1-.9,1.9-.3,1.3-.7,2.1-.6,1.2-1.1,1.9-.7,1.2-1.2,1.9-1,1-1.5,1.6-.5,1.4-1,2-1.3.8-1.8,1.4-1.1.9-1.6,1.5-.7,1.3-1.2,1.9c-.5.6-1.3.9-1.8,1.4s-.5,1.7-1,2.2-1.6.5-2.1,1-.8,1.4-1.4,1.8-1.6.4-2.2.8-.9,1.4-1.5,1.7-1.6.3-2.2.6-1.1,1.3-1.7,1.6-1.7-.2-2.3,0-1.5.3-2.1.3-1.5,0-2.1,0-1.4-.3-2-.5c-1.3-.4-2.1.7-2.4-.4.5-.2,1.4-.6,2.1-1.1s1.4-.4,2-.8,1.2-.7,1.8-1.2.5-1.6,1.1-2.1,1.4-.6,1.9-1.1.7-1.3,1.2-1.8.9-1.1,1.3-1.7,1.5-.7,1.9-1.2.5-1.4.9-2,1-1.1,1.4-1.7.3-1.5.5-2.1,1.3-1.1,1.5-1.8-.6-1.6-.6-2.3,0-1.3-.2-2-.2-1.3-.5-2,0-1.6-.4-2.2-.8-1.3-1.4-1.8c-.5-.5-1.4-.7-1.9-1.1s-1.5-.4-2.1-.8-1.2-.8-1.8-1.1-1.3-.7-1.9-.9-1.4-.3-2.1-.4-1.4-.6-2.2-.6-1.5,0-2.2.2-1.2,1.3-1.9,1.5-1.5-.1-2.2.1-1.3.7-1.9,1-1,1-1.7,1.4-1.5.2-2.1.6-1.4.5-2,1-.8,1.3-1.3,1.8-1.5.5-2,1-.4,1.6-.9,2.1c-.5.6-1,1.1-1.4,1.7s-.5,1.4-.8,2.1-1.5,1-1.8,1.7-.5,1.5-.7,2.2.4,1.6.2,2.4-.5,1.4-.6,2.2-.7,1.5-.8,2.2.9,1.6.9,2.3c0,1.4.6,1.6,0,2.5-.7,0-1.9.3-2.6,0s-1.3-.6-1.9-1-.6-1.4-1.1-1.8-.8-1-1-1.6-.8-1.2-.7-1.8c0-.5,0-1.3.4-2.1s1.3-.9,1.5-1.6-.5-1.6-.3-2.3,1.2-1.2,1.3-1.8-.6-1.4-.8-2-.5-1-1.2-1.4-1.1-.6-1.9-.6c-.8,0-1.5-.5-2.2-.4s-1.3.9-2,1.1-1.1.9-1.6,1.3-1,.8-1.5,1.4-.6,1.1-1,1.8-1.1,1-1.3,1.7,0,1.4-.1,2.1-.8,1.3-.8,2.1.5,1.4.5,2.1.6,1.3.7,2.1-.6,1.5-.5,2.2.1,1.5.3,2.1,1.4,1,1.6,1.7.2,1.5.5,2.1.1,1.6.5,2.2c.4.6,1.2,1.1,1.7,1.6s1.5.5,2.2.9,1.1,1,1.9,1.3,1.5.3,2.2.4,1.4.7,2.2.8,1.5.2,2.3.2,1.5-.6,2.3-.6,1.5,0,2.2-.1,1.6.5,2.3.5c1.4-.2,2-1.6,1.8-.5s-.6,1.1-.2,2.2.8.8,1.8,1.3,1.2.4,2.1.6,1.3,1,2.1,1.1,1.5,0,2.3,0,1.5-.4,2.3-.4c.7,0,1.4-.2,2.2-.2s1.4-.2,2.2-.3,1.4-.3,2.1-.5,1.5-.2,2.2-.5,1.1-1.1,1.7-1.5,1.2-.8,1.8-1.2,1.3-.7,1.9-1.1,1.7-.2,2.3-.6.9-1.3,1.5-1.7,1-1.1,1.6-1.5,1.2-.8,1.8-1.3,1.1-1,1.6-1.5.9-1.2,1.4-1.7.9-1.2,1.4-1.7,1.6-.5,2.1-1.1,1.1-1.1,1.6-1.6.4-1.8.8-2.2c.9-1.1,1-.5,2-.9,0,.4,0,.8-.1,1.7s-.8,1.3-.8,2.1,1,1.5,1,2.2-.8,1.4-.8,2.2.3,1.4.3,2.2-.1,1.5,0,2.2-.4,1.5-.3,2.2,1.2,1.3,1.3,2,.3,1.4.5,2.1.2,1.5.5,2.1c.4.7.8,1.1,1.4,1.5s1.1,1,1.8,1.2,1.4-.4,2.2-.4,1.6.9,2.3.8,1.6-1.2,2.1-1.2c.8,0,.6-.2.8-1.2s.5-1.2.5-2.1.5-1.3.6-2.1-.2-1.4-.1-2.2.7-1.3.9-2-.2-1.5,0-2.2.6-1.3.9-2,.9-1.2,1.2-1.8.8-1.1,1.2-1.8.2-1.6.6-2.2.9-1.1,1.3-1.7.7-1.3,1.2-1.9,1-1.1,1.5-1.6,1.3-.7,1.8-1.2,1.5-.5,2.1-.9c.6-.5,1.1-.9,1.7-1.4s.8-1.5,1.4-1.9,1.1-1,1.8-1.4,1.4-.7,2-1,1.5-.4,2.2-.6,1.5-.4,2.1-.6,1.6.5,2.3.4,1.4-1.1,2.1-1.1,1.5,0,2.2,0,1.4,1,2.1,1.1,1.6-.3,2.2-.2,1.5.1,2.1.2,1.6.7,2.2.5.9-1.1,1.4-1.8.8-1.1,1-1.9c.2-.8,0-1.5,0-2.1s.1-1.5,0-2.1-.9-1-1.4-1.4-.8-1.1-1.5-1.3-1.3-.7-2-.7-1.4,0-2.1,0-1.4-.3-2.1-.2-1.4.3-2.1.4-1.2,1.1-1.9,1.2-1.6-.7-2.2-.5-1.2,1-1.9,1.1ZM501.1,154.8c-.4-1,0-.9.3-2.2s1-1.1,1.2-1.9,0-1.4.4-2.1.3-1.4.7-2,.5-1.5,1.1-2,1.3-.9,2-1.1,1.5,0,2.2,0,1.4-.4,2.1-.2c.9.2,1.3.7,1.5,1.3s-.4,1-.7,1.7-.5,1.1-1,1.7-.4,1.3-.9,1.9-.7,1.3-1.2,1.7-1.3.6-1.8,1-1.4.3-2,.7-.9,1.5-1.5,1.7-1.8,0-2.3-.2Z"/>
          </g>
          <g>
            <path class="cls-4" d="M611.9,163.8c.5-.2,1-.8,1.8-1.3s1.2-.7,1.8-1.1,1.2-.7,1.8-1.2,1.1-.8,1.7-1.3,1.2-.8,1.7-1.3.7-1.3,1.2-1.8,1.2-.8,1.7-1.4.9-1.1,1.3-1.7,1-1.1,1.4-1.7.6-1.3,1-1.9.5-1.4.8-2,.7-1.3.9-2,.2-1.5.2-2.2-.2-1.4-.3-2.1-.4-1.3-.7-2-.3-1.4-.8-2-1-1-1.5-1.5c-.5-.5-1.2-.8-1.7-1.2s-1.2-.8-1.8-1.2-1.3-.6-1.9-.9-1.2-.8-1.9-.9-1.4-.4-2.1-.4-1.4-.3-2.2-.3-1.4.4-2.1.5-1.4.5-2,.6-1.4.1-2.1.4-1.2.8-1.9,1.1-1.3.6-1.9,1-1.4.4-2,.8-.9,1.2-1.4,1.7-1.3.7-1.8,1.2-1.1,1-1.6,1.4-1.2.9-1.6,1.4c-.5.6-1,1.2-1.4,1.8s-1,1.2-1.3,1.9-.5,1.4-.8,2.1-.3,1.5-.5,2.2-.7,1.4-.8,2.1.2,1.6,0,2.3-.2,1.5-.2,2.2-.3,1.6-.3,2.2c0,1.4.9,1.3.2,2.2-.8,0-1.5.3-2.2.3s-1.5,0-2.3,0-1.5-.6-2.3-.6-1.6,0-2.3,0-1.6.3-2.2.3-1.5.5-2.2.6-1.7-.1-2.3.1-1.5.7-2,1.1-.5,1.4-.7,2.2-.6,1.3-.6,2.2.2,1.5.6,2.1,1,1,1.6,1.5,1,1.1,1.7,1.4,1.3.6,2.1.8,1.5-.2,2.3,0,1.4.6,2.1.7,1.5-.2,2.2-.1,1.5.2,2.2.3,1.5-.2,2.2-.2,1.5.3,2.2.2,1.5-.3,2.2-.3,1.6.1,2.2,0c1.4-.1,2.4-1.3,2.1-.2s-.8,1-.4,2,.5,1.1,1.6,1.5,1.3.2,2.2.4,1.4.2,2.2.3,1.4.4,2.2.5,1.5-.1,2.3-.1c.7,0,1.4.2,2.2.1s1.4-.3,2.1-.5,1.2-.8,1.9-1,1.4-.4,2-.7,1.4-.5,2-.9,1-1,1.6-1.4,1.1-1,1.6-1.4,1.3-.6,1.9-1.1.9-1.2,1.4-1.7,1.1-.9,1.6-1.4,1.1-.9,1.6-1.5,1-1.1,1.5-1.6.9-1.2,1.3-1.7.8-1.2,1.3-1.8,1-1.1,1.4-1.7,1.2-1,1.6-1.5.9-1.2,1.3-1.8.8-1.4,1.1-1.9c.8-1.1.6-.9.8-1.9s0-1,.2-2.1.4-1,.3-2.1c-.4.6-.8,1.2-1.2,1.8s-.6,1.4-1,1.9-1.1,1-1.5,1.6-1,1.1-1.4,1.6-.9,1.2-1.3,1.7-.7,1.3-1.2,1.8-1.2.8-1.7,1.3-1,1-1.5,1.5-.9,1.2-1.4,1.6-1.2,1-1.7,1.3-1.3.8-1.9,1.1-1.6,0-2.2.2-1.4.3-2.1.4-1.5.5-2.1.4-1.5-.4-2.1-.6c-1.2-.4-1.7,0-1.9-1ZM603.9,154.8c-.4-1-.2-.9,0-2.2s.4-1.3.6-2.1.6-1.3.9-1.9.7-1.2,1.1-1.8,1-1,1.5-1.5.8-1.2,1.5-1.5,1.4-.1,2.1-.2,1.3,0,2.1,0c.9.2,1.2.5,1.4,1.1s.2,1.1-.1,1.8-.5,1.2-.9,1.8-1,.9-1.5,1.4-.9,1-1.4,1.5-.9,1.1-1.5,1.5-1.1.9-1.7,1.2-1.4.4-2,.6-1.5.4-2,.2Z"/>
            <path class="cls-4" d="M611.9,163.8c.5-.2,1-.8,1.8-1.3s1.2-.7,1.8-1.1,1.2-.7,1.8-1.2,1.1-.8,1.7-1.3,1.2-.8,1.7-1.3.7-1.3,1.2-1.8,1.2-.8,1.7-1.4.9-1.1,1.3-1.7,1-1.1,1.4-1.7.6-1.3,1-1.9.5-1.4.8-2,.7-1.3.9-2,.2-1.5.2-2.2-.2-1.4-.3-2.1-.4-1.3-.7-2-.3-1.4-.8-2-1-1-1.5-1.5c-.5-.5-1.2-.8-1.7-1.2s-1.2-.8-1.8-1.2-1.3-.6-1.9-.9-1.2-.8-1.9-.9-1.4-.4-2.1-.4-1.4-.3-2.2-.3-1.4.4-2.1.5-1.4.5-2,.6-1.4.1-2.1.4-1.2.8-1.9,1.1-1.3.6-1.9,1-1.4.4-2,.8-.9,1.2-1.4,1.7-1.3.7-1.8,1.2-1.1,1-1.6,1.4-1.2.9-1.6,1.4c-.5.6-1,1.2-1.4,1.8s-1,1.2-1.3,1.9-.5,1.4-.8,2.1-.3,1.5-.5,2.2-.7,1.4-.8,2.1.2,1.6,0,2.3-.2,1.5-.2,2.2-.3,1.6-.3,2.2c0,1.4.9,1.3.2,2.2-.8,0-1.5.3-2.2.3s-1.5,0-2.3,0-1.5-.6-2.3-.6-1.6,0-2.3,0-1.6.3-2.2.3-1.5.5-2.2.6-1.7-.1-2.3.1-1.5.7-2,1.1-.5,1.4-.7,2.2-.6,1.3-.6,2.2.2,1.5.6,2.1,1,1,1.6,1.5,1,1.1,1.7,1.4,1.3.6,2.1.8,1.5-.2,2.3,0,1.4.6,2.1.7,1.5-.2,2.2-.1,1.5.2,2.2.3,1.5-.2,2.2-.2,1.5.3,2.2.2,1.5-.3,2.2-.3,1.6.1,2.2,0c1.4-.1,2.4-1.3,2.1-.2s-.8,1-.4,2,.5,1.1,1.6,1.5,1.3.2,2.2.4,1.4.2,2.2.3,1.4.4,2.2.5,1.5-.1,2.3-.1c.7,0,1.4.2,2.2.1s1.4-.3,2.1-.5,1.2-.8,1.9-1,1.4-.4,2-.7,1.4-.5,2-.9,1-1,1.6-1.4,1.1-1,1.6-1.4,1.3-.6,1.9-1.1.9-1.2,1.4-1.7,1.1-.9,1.6-1.4,1.1-.9,1.6-1.5,1-1.1,1.5-1.6.9-1.2,1.3-1.7.8-1.2,1.3-1.8,1-1.1,1.4-1.7,1.2-1,1.6-1.5.9-1.2,1.3-1.8.8-1.4,1.1-1.9c.8-1.1.6-.9.8-1.9s0-1,.2-2.1.4-1,.3-2.1c-.4.6-.8,1.2-1.2,1.8s-.6,1.4-1,1.9-1.1,1-1.5,1.6-1,1.1-1.4,1.6-.9,1.2-1.3,1.7-.7,1.3-1.2,1.8-1.2.8-1.7,1.3-1,1-1.5,1.5-.9,1.2-1.4,1.6-1.2,1-1.7,1.3-1.3.8-1.9,1.1-1.6,0-2.2.2-1.4.3-2.1.4-1.5.5-2.1.4-1.5-.4-2.1-.6c-1.2-.4-1.7,0-1.9-1ZM603.9,154.8c-.4-1-.2-.9,0-2.2s.4-1.3.6-2.1.6-1.3.9-1.9.7-1.2,1.1-1.8,1-1,1.5-1.5.8-1.2,1.5-1.5,1.4-.1,2.1-.2,1.3,0,2.1,0c.9.2,1.2.5,1.4,1.1s.2,1.1-.1,1.8-.5,1.2-.9,1.8-1,.9-1.5,1.4-.9,1-1.4,1.5-.9,1.1-1.5,1.5-1.1.9-1.7,1.2-1.4.4-2,.6-1.5.4-2,.2Z"/>
          </g>
          <g>
            <path class="cls-4" d="M774.2,135.8c-.7.2-1.4.4-2.2.8s-1,1.3-1.7,1.7-1.8,0-2.4.4-1.2.9-1.8,1.3-1,1.2-1.6,1.7-1.1,1-1.7,1.5-.9,1.3-1.4,1.8-1.1,1-1.6,1.5-1.4.8-1.9,1.3c-1,1-.4,2.2-1.3,1.6s0-.8.2-2.1.7-1.4.8-2.2-.1-1.6,0-2.3c0-.6,0-1.4-.1-2.3s-.9-1.2-1.3-1.8-.3-1.7-.8-2.2-1.6,0-2.4-.3-1.2-.3-2-.3-1.3,0-2.1,0-1.6-.6-2.3-.3c-1,.3-1.5,1.1-1.9,1.5s-.5,1.2-.8,2.1.2,1.5-.2,2.3-.6,1.3-1,2-1,1-1.4,1.7-.9,1.1-1.4,1.7-.4,1.5-.9,2.1-1.1.9-1.6,1.5-1.6.5-2.1,1,0,1.9-.6,2.5c-.5.6-1.5.6-2,1.1s-.9,1.2-1.4,1.7-.9,1.3-1.4,1.7-1.4.7-1.9,1.2-1.6.3-2.2.7-.9,1.4-1.5,1.7-1.7,0-2.3.4-1.3.6-2,.9-1.3.7-2,.9-1.4.3-2.1.5-1.3,1.1-2,1.2-1.5.2-2.2.2-1.6,0-2.2-.1-1.5-.4-2.2-.6-1.4-.9-2-1.1c-1.3-.4-1.6.5-1.9-.5.5-.2.7-.9,1.4-1.4s1.7,0,2.3-.4.8-1.3,1.4-1.7.9-1.1,1.5-1.6,1.5-.4,2.1-1,.4-1.6.9-2.2.9-1.1,1.4-1.6,1.1-.9,1.5-1.5,1.7-.6,2.1-1.2.5-1.4.8-2.1,0-1.6.2-2.3.6-1.3.7-2,.6-1.3.6-2,.2-1.4.1-2.1,0-1.6-.2-2.2-1.2-1-1.6-1.6-.8-1.1-1.3-1.7c-.5-.5-1.4-.6-1.9-1s-1-1-1.6-1.3-.9-1.5-1.5-1.8-1.6,0-2.2-.2-1.3-.9-2-1-1.5.8-2.2.9-1.4-.3-2.2-.2-1.3.8-2,1-1.6-.4-2.3-.2-1.5.3-2.1.6-1,1.2-1.7,1.5-.9,1.3-1.5,1.7-1.6.2-2.2.6-1.2.9-1.7,1.3-1.4.7-1.9,1.1-.6,1.5-1,2c-.5.6-1.2,1-1.6,1.6s-.7,1.4-1,2-.5,1.4-.8,2.1-.4,1.4-.6,2.2-.8,1.4-1,2.1.4,1.6.3,2.3-1.1,1.5-1.2,2.2.9,1.6.9,2.3c0,1.4.6,1.5,0,2.4-.7,0-1.7,0-2.4,0s-1.5.1-2.2,0-1.4-.5-2.1-.7-1.1-1-1.7-1.4-1.1-.9-1.6-1.4-.3-1.4-.6-2.1-.8-1.1-1-1.8-.5-1.3-.6-2,.1-1.4.1-2.1c0-.8-.3-1.5-.2-2.2s0-1.5.2-2.2,1.3-1.2,1.5-1.9-.2-1.6.1-2.3.7-1.3,1.1-1.9,1.1-1.1,1.5-1.6,1.2-.9,1.6-1.4.6-1.5,1.1-2,.9-1.3,1.3-1.7c.7-.7,1.3-1.2.8-1.8s-1.1-.5-2-.9c-.7-.3-1.4,0-2.1,0s-1.3-.4-2-.2-1.7-.3-2.3,0-.8,1.4-1.4,1.9-.7,1.2-1.2,1.8-1.2.8-1.7,1.4-1.2,1-1.5,1.6,0,1.6-.3,2.2-1.2,1.1-1.5,1.7-.7,1.3-.9,2,.2,1.5,0,2.2-.5,1.4-.6,2.1.4,1.5.3,2.2-.8,1.4-.8,2.1-.2,1.5-.1,2.2.3,1.4.4,2.2,0,1.5.1,2.2,1.5,1.1,1.6,1.8-.4,1.6-.2,2.3,1,1.1,1.3,1.8.8,1.2,1.2,1.8.1,1.6.5,2.2,1.3.7,1.8,1.3c.5.6,1.1.8,1.7,1.3s1.1.8,1.8,1.1,1.2.8,1.9,1,1.2,1.1,1.9,1.3,1.5.2,2.2.3,1.5.5,2.2.6,1.5.2,2.3.2,1.6,0,2.3,0,1.6-.4,2.2-.4c1.4-.1,2.1-1.6,1.8-.5s-.2.9.2,2,.4.7,1.4,1.2,1.1.9,2,1.1,1.5-.3,2.3-.2,1.3,1.3,2.1,1.4,1.5-1.1,2.3-1.1c.7,0,1.3,0,2.1,0s1.5.5,2.2.4,1.2-.9,1.9-1.1,1.4-.2,2.1-.4,1.3-.4,2-.7,1.4-.3,2.1-.6,1.4-.3,2.1-.6,1.1-1,1.7-1.3.8-1.4,1.4-1.8,1.7,0,2.3-.4,1.4-.5,2-.9,1.1-1,1.7-1.4.9-1.2,1.5-1.6,1.5-.4,2.1-.8.7-1.5,1.2-1.9,1.1-1,1.6-1.4,1.8,0,2.3-.5,1-1.1,1.5-1.5,1.2-.9,1.7-1.3,1.2-1,1.6-1.4c1-.9.2-2,1.3-2.2,0,.4.1,1.7,0,2.7s.2,1.4.2,2.2-.7,1.4-.8,2.2,0,1.4,0,2.2,0,1.5,0,2.2.7,1.4.8,2.2-.9,1.6-.8,2.3.7,1.4.8,2.1-.2,1.6,0,2.3.6,1.5.9,2.1c.4.7,1.4.9,1.9,1.3s1.2.5,1.9.7,1.3.1,2.1.1,1.6.9,2.3.8,1.6-.3,2-.3c.8,0,.6-1.1.8-2.1s1.1-1.2,1.1-2-.6-1.4-.6-2.2.6-1.4.7-2.1.6-1.3.8-2.1.6-1.3.8-2-.3-1.6,0-2.3,1.2-1,1.6-1.7,0-1.6.3-2.3.9-1.1,1.4-1.7.7-1.3,1.1-1.9,1.3-.8,1.8-1.4.4-1.6,1-2.1,1.1-1,1.6-1.5,1-1,1.6-1.5c.6-.5,1.6-.4,2.1-.8s1.1-1,1.7-1.4,1.1-1,1.8-1.4,1.7.1,2.3-.2,1.1-1.2,1.8-1.4,1.6.3,2.3.1,1.3-.9,2-1,1.5-.6,2.2-.6,1.5.5,2.2.5,1.4.7,2.1.8,1.5.1,2.2.3,1.6-.6,2.3-.5,1.7,1.2,2.3.9,1.1-1.2,1.5-1.9,0-1.4.2-2.2c.2-.8.6-1.3.6-2s-.4-1.3-.6-1.9,0-1.6-.5-2.1-1.4-.3-2.1-.5-1.2-.6-1.9-.7-1.3-.5-2.1-.5-1.3.7-2.1.8-1.5-.8-2.2-.7-1.3.7-2,.8-1.5,0-2.1,0-1.4.4-2,.6ZM695.5,154.6c-.4-1,0-.6.3-1.9s-.5-1.5-.3-2.2,1.3-1,1.6-1.7.5-1.2.9-1.8.5-1.3,1-1.8,1-.9,1.7-1.2,1.2-.8,2-.9,1.4,0,2.2,0c.9.2,1.3.9,1.4,1.4s0,1.1-.3,1.9-.5,1.2-1,1.8-1.2.7-1.7,1.2-.7,1.2-1.2,1.6-1,.9-1.6,1.3-.9,1.2-1.4,1.6-1.6,0-2.2.1-1,.7-1.5.5Z"/>
            <path class="cls-4" d="M774.2,135.8c-.7.2-1.4.4-2.2.8s-1,1.3-1.7,1.7-1.8,0-2.4.4-1.2.9-1.8,1.3-1,1.2-1.6,1.7-1.1,1-1.7,1.5-.9,1.3-1.4,1.8-1.1,1-1.6,1.5-1.4.8-1.9,1.3c-1,1-.4,2.2-1.3,1.6s0-.8.2-2.1.7-1.4.8-2.2-.1-1.6,0-2.3c0-.6,0-1.4-.1-2.3s-.9-1.2-1.3-1.8-.3-1.7-.8-2.2-1.6,0-2.4-.3-1.2-.3-2-.3-1.3,0-2.1,0-1.6-.6-2.3-.3c-1,.3-1.5,1.1-1.9,1.5s-.5,1.2-.8,2.1.2,1.5-.2,2.3-.6,1.3-1,2-1,1-1.4,1.7-.9,1.1-1.4,1.7-.4,1.5-.9,2.1-1.1.9-1.6,1.5-1.6.5-2.1,1,0,1.9-.6,2.5c-.5.6-1.5.6-2,1.1s-.9,1.2-1.4,1.7-.9,1.3-1.4,1.7-1.4.7-1.9,1.2-1.6.3-2.2.7-.9,1.4-1.5,1.7-1.7,0-2.3.4-1.3.6-2,.9-1.3.7-2,.9-1.4.3-2.1.5-1.3,1.1-2,1.2-1.5.2-2.2.2-1.6,0-2.2-.1-1.5-.4-2.2-.6-1.4-.9-2-1.1c-1.3-.4-1.6.5-1.9-.5.5-.2.7-.9,1.4-1.4s1.7,0,2.3-.4.8-1.3,1.4-1.7.9-1.1,1.5-1.6,1.5-.4,2.1-1,.4-1.6.9-2.2.9-1.1,1.4-1.6,1.1-.9,1.5-1.5,1.7-.6,2.1-1.2.5-1.4.8-2.1,0-1.6.2-2.3.6-1.3.7-2,.6-1.3.6-2,.2-1.4.1-2.1,0-1.6-.2-2.2-1.2-1-1.6-1.6-.8-1.1-1.3-1.7c-.5-.5-1.4-.6-1.9-1s-1-1-1.6-1.3-.9-1.5-1.5-1.8-1.6,0-2.2-.2-1.3-.9-2-1-1.5.8-2.2.9-1.4-.3-2.2-.2-1.3.8-2,1-1.6-.4-2.3-.2-1.5.3-2.1.6-1,1.2-1.7,1.5-.9,1.3-1.5,1.7-1.6.2-2.2.6-1.2.9-1.7,1.3-1.4.7-1.9,1.1-.6,1.5-1,2c-.5.6-1.2,1-1.6,1.6s-.7,1.4-1,2-.5,1.4-.8,2.1-.4,1.4-.6,2.2-.8,1.4-1,2.1.4,1.6.3,2.3-1.1,1.5-1.2,2.2.9,1.6.9,2.3c0,1.4.6,1.5,0,2.4-.7,0-1.7,0-2.4,0s-1.5.1-2.2,0-1.4-.5-2.1-.7-1.1-1-1.7-1.4-1.1-.9-1.6-1.4-.3-1.4-.6-2.1-.8-1.1-1-1.8-.5-1.3-.6-2,.1-1.4.1-2.1c0-.8-.3-1.5-.2-2.2s0-1.5.2-2.2,1.3-1.2,1.5-1.9-.2-1.6.1-2.3.7-1.3,1.1-1.9,1.1-1.1,1.5-1.6,1.2-.9,1.6-1.4.6-1.5,1.1-2,.9-1.3,1.3-1.7c.7-.7,1.3-1.2.8-1.8s-1.1-.5-2-.9c-.7-.3-1.4,0-2.1,0s-1.3-.4-2-.2-1.7-.3-2.3,0-.8,1.4-1.4,1.9-.7,1.2-1.2,1.8-1.2.8-1.7,1.4-1.2,1-1.5,1.6,0,1.6-.3,2.2-1.2,1.1-1.5,1.7-.7,1.3-.9,2,.2,1.5,0,2.2-.5,1.4-.6,2.1.4,1.5.3,2.2-.8,1.4-.8,2.1-.2,1.5-.1,2.2.3,1.4.4,2.2,0,1.5.1,2.2,1.5,1.1,1.6,1.8-.4,1.6-.2,2.3,1,1.1,1.3,1.8.8,1.2,1.2,1.8.1,1.6.5,2.2,1.3.7,1.8,1.3c.5.6,1.1.8,1.7,1.3s1.1.8,1.8,1.1,1.2.8,1.9,1,1.2,1.1,1.9,1.3,1.5.2,2.2.3,1.5.5,2.2.6,1.5.2,2.3.2,1.6,0,2.3,0,1.6-.4,2.2-.4c1.4-.1,2.1-1.6,1.8-.5s-.2.9.2,2,.4.7,1.4,1.2,1.1.9,2,1.1,1.5-.3,2.3-.2,1.3,1.3,2.1,1.4,1.5-1.1,2.3-1.1c.7,0,1.3,0,2.1,0s1.5.5,2.2.4,1.2-.9,1.9-1.1,1.4-.2,2.1-.4,1.3-.4,2-.7,1.4-.3,2.1-.6,1.4-.3,2.1-.6,1.1-1,1.7-1.3.8-1.4,1.4-1.8,1.7,0,2.3-.4,1.4-.5,2-.9,1.1-1,1.7-1.4.9-1.2,1.5-1.6,1.5-.4,2.1-.8.7-1.5,1.2-1.9,1.1-1,1.6-1.4,1.8,0,2.3-.5,1-1.1,1.5-1.5,1.2-.9,1.7-1.3,1.2-1,1.6-1.4c1-.9.2-2,1.3-2.2,0,.4.1,1.7,0,2.7s.2,1.4.2,2.2-.7,1.4-.8,2.2,0,1.4,0,2.2,0,1.5,0,2.2.7,1.4.8,2.2-.9,1.6-.8,2.3.7,1.4.8,2.1-.2,1.6,0,2.3.6,1.5.9,2.1c.4.7,1.4.9,1.9,1.3s1.2.5,1.9.7,1.3.1,2.1.1,1.6.9,2.3.8,1.6-.3,2-.3c.8,0,.6-1.1.8-2.1s1.1-1.2,1.1-2-.6-1.4-.6-2.2.6-1.4.7-2.1.6-1.3.8-2.1.6-1.3.8-2-.3-1.6,0-2.3,1.2-1,1.6-1.7,0-1.6.3-2.3.9-1.1,1.4-1.7.7-1.3,1.1-1.9,1.3-.8,1.8-1.4.4-1.6,1-2.1,1.1-1,1.6-1.5,1-1,1.6-1.5c.6-.5,1.6-.4,2.1-.8s1.1-1,1.7-1.4,1.1-1,1.8-1.4,1.7.1,2.3-.2,1.1-1.2,1.8-1.4,1.6.3,2.3.1,1.3-.9,2-1,1.5-.6,2.2-.6,1.5.5,2.2.5,1.4.7,2.1.8,1.5.1,2.2.3,1.6-.6,2.3-.5,1.7,1.2,2.3.9,1.1-1.2,1.5-1.9,0-1.4.2-2.2c.2-.8.6-1.3.6-2s-.4-1.3-.6-1.9,0-1.6-.5-2.1-1.4-.3-2.1-.5-1.2-.6-1.9-.7-1.3-.5-2.1-.5-1.3.7-2.1.8-1.5-.8-2.2-.7-1.3.7-2,.8-1.5,0-2.1,0-1.4.4-2,.6ZM695.5,154.6c-.4-1,0-.6.3-1.9s-.5-1.5-.3-2.2,1.3-1,1.6-1.7.5-1.2.9-1.8.5-1.3,1-1.8,1-.9,1.7-1.2,1.2-.8,2-.9,1.4,0,2.2,0c.9.2,1.3.9,1.4,1.4s0,1.1-.3,1.9-.5,1.2-1,1.8-1.2.7-1.7,1.2-.7,1.2-1.2,1.6-1,.9-1.6,1.3-.9,1.2-1.4,1.6-1.6,0-2.2.1-1,.7-1.5.5Z"/>
          </g>
          <path class="cls-4" d="M659.8,79c.4.7.4,1.5.7,2.1s1.1,1.1,1.4,1.7.8,1.4,1,2,.2,1.6.2,2.2,0,1.5-.3,2.2-.8,1.2-1.2,1.8-.8,1.1-1.2,1.8-.7,1.2-1.1,1.9-.1,1.5-.5,2.2-1.2,1-1.5,1.7-.2,1.4-.5,2.1-.2,1.4-.4,2.1-.9,1.2-1.1,2c-.2.7,0,1.5-.1,2.2s0,1.5-.1,2.2-.6,1.3-.8,2-.9,1.3-1,2,.5,1.6.3,2.3-.6,1.3-.7,2-.9,1.3-1.1,1.9,0,1.5,0,2.2-.2,1.4-.4,2.1-.2,1.4-.3,2.1-.9,1.3-1.1,2,0,1.4-.2,2.1.5,1.5.4,2.2-.9,1.3-1,2,0,1.4,0,2.2-.2,1.4-.3,2.1-.1,1.4-.2,2.1-.5,1.4-.5,2.1.3,1.4.2,2.2-.5,1.4-.6,2.1.4,1.4.3,2.2-.8,1.4-.9,2.1,0,1.4,0,2.2.5,1.4.4,2.2c0,.7-.3,1.4-.2,2.2s.5,1.4.7,2.1.4,1.4.6,2.1.5,1.3.9,2,.6,1.3.9,2,.9,1.2,1.2,1.9,0,1.6.3,2.2.8,1.3,1,1.9.1,1.4,0,2.1,0,1.4-.4,1.9-.9,1-1.8,1.2-1.3.5-2.1.5-1.4,0-2.2,0-1.4-.4-2.1-.5c-.7,0-1.5.3-2.2.1s-1.4-.5-2-.8-.7-1.3-1.2-1.8-.8-.9-1.1-1.6-1-1.1-1.2-1.8-.4-1.3-.5-2.1.3-1.4.2-2.1.2-1.4.2-2.1,0-1.4,0-2.1,0-1.4,0-2.1,0-1.4,0-2.1,0-1.4.1-2.1,0-1.4.1-2.1.6-1.3.7-2,0-1.4,0-2.1-.4-1.5-.3-2.2.6-1.3.7-2c0-.7.6-1.4.7-2.1s-.4-1.5-.2-2.2.7-1.3.8-2,.3-1.4.4-2.1-.4-1.6-.2-2.3,1-1.3,1.1-2,.2-1.4.4-2.1.1-1.4.3-2.1.8-1.3.9-2,.5-1.3.7-2.1.3-1.4.4-2.1-.3-1.5,0-2.3,1.1-1.2,1.2-1.9.4-1.4.6-2.1-.3-1.5-.2-2.3.3-1.4.5-2.1.2-1.4.3-2.1,1.1-1.2,1.2-2,.3-1.4.4-2.1-.6-1.6-.5-2.3.4-1.4.5-2.1.9-1.3,1-2c.1-.7-.3-1.5-.1-2.2s.5-1.3.6-2,0-1.5,0-2.1.3-1.4.5-2.1,1-1.2,1.2-1.8.1-1.4.3-2.1.4-1.4.7-2,.2-1.5.4-2.1,1.2-1.1,1.5-1.6,0-1.7.4-2.2,1.3-1.1,1.7-1.4,1.3-.1,2,.2,1.4.3,1.8,1.1Z"/>
          <g>
            <path class="cls-4" d="M383.4,153.2c-.5.5-.8,1.3-1.3,1.8s-1.3.8-1.8,1.3-.8,1.4-1.3,1.8-1.5.5-2,1-.7,1.5-1.3,1.9-1.7,0-2.3.4-1,1.2-1.7,1.5-1.4.5-2.1.7-1.3.9-2,1.1-1.6-.1-2.3,0-1.5.4-2.2.3-1.5-.3-2.1-.5c-1.3-.4-1.5.3-1.7-.8.5-.2.6-1,1.3-1.5s1.3-.5,1.9-.9,1.5-.3,2.1-.8.7-1.4,1.3-1.9,1.4-.6,1.9-1.1,1.1-.9,1.6-1.5.3-1.6.8-2.2,1.7-.5,2.1-1.1.7-1.3,1.1-1.9.6-1.3,1-2,0-1.6.3-2.2.7-1.2.9-1.9.9-1.3.9-2-.5-1.4-.6-2.1-.2-1.4-.5-2.1-.9-1-1.3-1.6-.8-1-1.4-1.6c-.5-.5-.9-1.1-1.5-1.5s-1.3-.6-1.9-1-1.2-.7-1.8-1-1.3-.4-2-.6-1.4-.3-2.1-.4-1.4-.2-2.1-.2-1.4-.3-2.2-.2-1.3.8-2,1-1.3.4-2,.6-1.6-.1-2.2.2-1.4.5-2,.8-1.1,1-1.7,1.4-.8,1.3-1.4,1.7-1,1-1.5,1.5-1.4.6-1.9,1.1-1.1,1-1.6,1.5c-.5.6-1.3.9-1.7,1.5s-.1,1.7-.5,2.4-.7,1.3-1,2-.5,1.4-.7,2.1-.7,1.4-.8,2.1-.5,1.5-.6,2.2.2,1.6.1,2.3.3,1.6.3,2.2c0,1.4.6,1.5,0,2.5s-1.2.6-2.4.7-1.4-.4-2.2-.6-1.4-.4-2-.9-.5-1.3-1-2-.8-1-1.1-1.8-.2-1.3-.4-2.1-1-1.2-1.1-2,.1-1.4,0-2.2-.5-1.4-.5-2.2.5-1.4.6-2.1.3-1.4.4-2.1,0-1.4.2-2.1,0-1.4,0-2.2.5-1.3.6-2.1.1-1.4.3-2.1.3-1.4.5-2.1.4-1.4.5-2.1.3-1.4.4-2.1,0-1.4.2-2.2.3-1.4.4-2.1,1.1-1.2,1.2-1.9-.1-1.5,0-2.2c.2-.7.4-1.4.6-2.1s.2-1.5.5-2.1.3-1.5.6-2.1,1.5-.9,1.8-1.6.2-1.6.5-2.2.4-1.5.8-2.1.9-1.2,1.2-1.8.8-1.3,1.2-1.8.9-1.2,1.2-1.8.6-1.4.8-1.9c.3-.9.6-1.3,0-1.8s-.9-.9-1.9-1.2-1.3-.5-2.1-.6-1.4,0-2.2,0-1.4.2-2.2.1c-.7,0-1.6-.4-2.3-.2s-1.6.4-2.2.8-1.2,1-1.7,1.6-1,1.1-1.4,1.8.1,1.7-.2,2.4-.8,1.2-1.1,1.9-.8,1.2-1,2-.5,1.3-.7,2.1c-.2.7.3,1.6.1,2.3s-1.3,1.2-1.4,1.9,0,1.5-.1,2.2-.5,1.4-.7,2.1-.4,1.4-.6,2.1.5,1.6.3,2.3-1.1,1.3-1.2,2-.4,1.4-.5,2.1,0,1.5,0,2.2-.6,1.4-.7,2.1.9,1.6.8,2.4-.3,1.4-.4,2.2-.6,1.4-.7,2.1-.1,1.5-.2,2.2-.5,1.8-.6,2.5c-1-.3-.6-.9-1.2-2s.2-1.7-.3-2.3-1.1-.9-1.6-1.5-.9-1.1-1.5-1.5-1.1-1-1.7-1.3-1.6.3-2.3,0-1.2-.6-2-.7c-.7,0-1.3.2-2.1.3s-1.5-.8-2.2-.6-1.2,1-1.8,1.3-1.4.3-2,.6-1.4.4-2,.8-.9,1.2-1.4,1.7-1.2.8-1.7,1.3-.6,1.4-1,1.9-.7,1.2-1.1,1.8-.9,1-1.3,1.7-.7,1.2-1,1.8-.2,1.4-.5,2.1-.7,1.2-.9,1.9-.4,1.3-.6,2-.2,1.4-.4,2.1-.4,1.3-.6,2-.9,1.3-1,2c0,.7,0,1.5,0,2.1s-.6,1.4-.7,2.1,0,1.5,0,2.1.5,1.5.5,2.1,0,1.4,0,2.1-.3,1.5-.2,2.2.7,1.3.9,2,.2,1.5.5,2.1.7,1.3,1.1,1.8,1.3.8,1.8,1.2,1.1.9,1.7,1.2,1.1,1.1,1.9,1.3,1.5-.7,2.3-.7,1.3.6,2.1.6,1.4.3,2.1.3c.8,0,1.4-.7,2.2-.9s1.7.4,2.4.1,1.4-.6,2.1-.9,1.1-1.2,1.8-1.5,1.6-.3,2.2-.8.9-1.3,1.5-1.8,1.2-.9,1.8-1.4.9-1.3,1.4-1.8,1-1.2,1.5-1.7,1.9-.4,2.3-.9c.9-1.1-.2-2,1-2,.3.7.8,1.1,1.1,1.7s.8,1.1,1.2,1.7.6,1.4,1.1,1.8,1.4.5,2,.8,1,1,1.7,1.3,1.2,1,1.9,1.2,1.5-.2,2.2,0,1.4,0,2.1,0,1.4.5,2.1.4,1.4,0,2.1-.2,1.4-.2,2.1-.3,1.4-.5,2-.6,1.4-.6,2-.8c1.2-.4,2.9-1.5,2.4-.6s-1.8.9-1.4,1.9.9,1.1,1.9,1.6,1.3.5,2.2.7,1.4.2,2.3.3,1.4.5,2.3.5,1.5-.9,2.3-.9c.7,0,1.5.7,2.2.6s1.4-.6,2.1-.7,1.6.2,2.3,0,1.1-1.2,1.8-1.5,1.5-.3,2.1-.6.9-1.3,1.5-1.7,1.5-.3,2.1-.7,1.1-1,1.6-1.4,1.5-.5,2-.9.8-1.3,1.3-1.8.9-1.2,1.4-1.7,1.7-.3,2.2-.8.7-1.3,1.2-1.8,1.4-.8,1.8-1.3.7-1.4,1.2-1.9.6-1.4,1.1-1.9.8-1.4,1.1-1.8c.8-1.1.8-.8,1.6-1.5.6-.4,1.3-.7,1.9-1.1s1.3-.7,1.9-1,1.4-.5,2-.7,1.5,0,2.1-.1,1.4.1,2.1.2,1.5-.1,2.1,0,1.3.7,1.9,1,1.7-.2,2.3,0,1.2,1.4,1.8,1.5c.8.2,1.2-.6,1.6-1.3s.6-.9.7-1.9c0-.7.8-1.5.7-2.2s-1.1-1.2-1.4-1.8-.5-1.2-1.1-1.7-.9-1.4-1.6-1.7-1.5,0-2.2-.1-1.3.6-2.1.8-1.4-.3-2.2,0-1.1.9-1.8,1.2-1.1.9-1.7,1.2-1.6,0-2.2.4-.8,1.2-1.4,1.6-1.4.5-1.9,1-1.2.7-1.7,1.2-1,1-1.5,1.5ZM299.4,163.5c-.4-.6-1-1-1.1-1.8s.2-1.4.3-2.2-.3-1.5-.1-2.3.9-1.3,1.1-2-.2-1.7,0-2.4,1.5-.9,1.8-1.6.3-1.6.7-2.2,1-1.1,1.4-1.7.7-1.5,1.2-1.9c.7-.6,1.6-.6,2.2-.5.7,0,1.5.2,2.2.7s1,1.1,1.6,1.7.9,1.3,1.3,1.9c.7,1.1,1.8.6,2,1.7-.2.5-.9,1.4-1.3,2.1s-1.2.9-1.6,1.5-.2,1.5-.7,2.1-1.2.8-1.7,1.4-1,1-1.4,1.6-.3,1.7-.8,2.1-1.7.3-2.2.8-1,1-1.6,1.3-1.2.7-1.8.7-.9-.4-1.4-1.1ZM351.4,154.6c-.4-1-.3-.7-.1-1.9s.6-1.2.8-2,0-1.5.2-2.2,1-1,1.4-1.6.3-1.7.8-2.2,1.6-.1,2.3-.4,1.1-1,1.9-1,1.4.2,2.1.3c.9.2,1.8.4,2,.9s-.4,1.3-.8,2-.4,1.2-.9,1.8-1,.9-1.5,1.4-1.1.8-1.6,1.3-.5,1.6-1.1,2-1.4.6-1.9.9-1.5.1-2.1.3-1,.5-1.5.3Z"/>
            <path class="cls-4" d="M383.4,153.2c-.5.5-.8,1.3-1.3,1.8s-1.3.8-1.8,1.3-.8,1.4-1.3,1.8-1.5.5-2,1-.7,1.5-1.3,1.9-1.7,0-2.3.4-1,1.2-1.7,1.5-1.4.5-2.1.7-1.3.9-2,1.1-1.6-.1-2.3,0-1.5.4-2.2.3-1.5-.3-2.1-.5c-1.3-.4-1.5.3-1.7-.8.5-.2.6-1,1.3-1.5s1.3-.5,1.9-.9,1.5-.3,2.1-.8.7-1.4,1.3-1.9,1.4-.6,1.9-1.1,1.1-.9,1.6-1.5.3-1.6.8-2.2,1.7-.5,2.1-1.1.7-1.3,1.1-1.9.6-1.3,1-2,0-1.6.3-2.2.7-1.2.9-1.9.9-1.3.9-2-.5-1.4-.6-2.1-.2-1.4-.5-2.1-.9-1-1.3-1.6-.8-1-1.4-1.6c-.5-.5-.9-1.1-1.5-1.5s-1.3-.6-1.9-1-1.2-.7-1.8-1-1.3-.4-2-.6-1.4-.3-2.1-.4-1.4-.2-2.1-.2-1.4-.3-2.2-.2-1.3.8-2,1-1.3.4-2,.6-1.6-.1-2.2.2-1.4.5-2,.8-1.1,1-1.7,1.4-.8,1.3-1.4,1.7-1,1-1.5,1.5-1.4.6-1.9,1.1-1.1,1-1.6,1.5c-.5.6-1.3.9-1.7,1.5s-.1,1.7-.5,2.4-.7,1.3-1,2-.5,1.4-.7,2.1-.7,1.4-.8,2.1-.5,1.5-.6,2.2.2,1.6.1,2.3.3,1.6.3,2.2c0,1.4.6,1.5,0,2.5s-1.2.6-2.4.7-1.4-.4-2.2-.6-1.4-.4-2-.9-.5-1.3-1-2-.8-1-1.1-1.8-.2-1.3-.4-2.1-1-1.2-1.1-2,.1-1.4,0-2.2-.5-1.4-.5-2.2.5-1.4.6-2.1.3-1.4.4-2.1,0-1.4.2-2.1,0-1.4,0-2.2.5-1.3.6-2.1.1-1.4.3-2.1.3-1.4.5-2.1.4-1.4.5-2.1.3-1.4.4-2.1,0-1.4.2-2.2.3-1.4.4-2.1,1.1-1.2,1.2-1.9-.1-1.5,0-2.2c.2-.7.4-1.4.6-2.1s.2-1.5.5-2.1.3-1.5.6-2.1,1.5-.9,1.8-1.6.2-1.6.5-2.2.4-1.5.8-2.1.9-1.2,1.2-1.8.8-1.3,1.2-1.8.9-1.2,1.2-1.8.6-1.4.8-1.9c.3-.9.6-1.3,0-1.8s-.9-.9-1.9-1.2-1.3-.5-2.1-.6-1.4,0-2.2,0-1.4.2-2.2.1c-.7,0-1.6-.4-2.3-.2s-1.6.4-2.2.8-1.2,1-1.7,1.6-1,1.1-1.4,1.8.1,1.7-.2,2.4-.8,1.2-1.1,1.9-.8,1.2-1,2-.5,1.3-.7,2.1c-.2.7.3,1.6.1,2.3s-1.3,1.2-1.4,1.9,0,1.5-.1,2.2-.5,1.4-.7,2.1-.4,1.4-.6,2.1.5,1.6.3,2.3-1.1,1.3-1.2,2-.4,1.4-.5,2.1,0,1.5,0,2.2-.6,1.4-.7,2.1.9,1.6.8,2.4-.3,1.4-.4,2.2-.6,1.4-.7,2.1-.1,1.5-.2,2.2-.5,1.8-.6,2.5c-1-.3-.6-.9-1.2-2s.2-1.7-.3-2.3-1.1-.9-1.6-1.5-.9-1.1-1.5-1.5-1.1-1-1.7-1.3-1.6.3-2.3,0-1.2-.6-2-.7c-.7,0-1.3.2-2.1.3s-1.5-.8-2.2-.6-1.2,1-1.8,1.3-1.4.3-2,.6-1.4.4-2,.8-.9,1.2-1.4,1.7-1.2.8-1.7,1.3-.6,1.4-1,1.9-.7,1.2-1.1,1.8-.9,1-1.3,1.7-.7,1.2-1,1.8-.2,1.4-.5,2.1-.7,1.2-.9,1.9-.4,1.3-.6,2-.2,1.4-.4,2.1-.4,1.3-.6,2-.9,1.3-1,2c0,.7,0,1.5,0,2.1s-.6,1.4-.7,2.1,0,1.5,0,2.1.5,1.5.5,2.1,0,1.4,0,2.1-.3,1.5-.2,2.2.7,1.3.9,2,.2,1.5.5,2.1.7,1.3,1.1,1.8,1.3.8,1.8,1.2,1.1.9,1.7,1.2,1.1,1.1,1.9,1.3,1.5-.7,2.3-.7,1.3.6,2.1.6,1.4.3,2.1.3c.8,0,1.4-.7,2.2-.9s1.7.4,2.4.1,1.4-.6,2.1-.9,1.1-1.2,1.8-1.5,1.6-.3,2.2-.8.9-1.3,1.5-1.8,1.2-.9,1.8-1.4.9-1.3,1.4-1.8,1-1.2,1.5-1.7,1.9-.4,2.3-.9c.9-1.1-.2-2,1-2,.3.7.8,1.1,1.1,1.7s.8,1.1,1.2,1.7.6,1.4,1.1,1.8,1.4.5,2,.8,1,1,1.7,1.3,1.2,1,1.9,1.2,1.5-.2,2.2,0,1.4,0,2.1,0,1.4.5,2.1.4,1.4,0,2.1-.2,1.4-.2,2.1-.3,1.4-.5,2-.6,1.4-.6,2-.8c1.2-.4,2.9-1.5,2.4-.6s-1.8.9-1.4,1.9.9,1.1,1.9,1.6,1.3.5,2.2.7,1.4.2,2.3.3,1.4.5,2.3.5,1.5-.9,2.3-.9c.7,0,1.5.7,2.2.6s1.4-.6,2.1-.7,1.6.2,2.3,0,1.1-1.2,1.8-1.5,1.5-.3,2.1-.6.9-1.3,1.5-1.7,1.5-.3,2.1-.7,1.1-1,1.6-1.4,1.5-.5,2-.9.8-1.3,1.3-1.8.9-1.2,1.4-1.7,1.7-.3,2.2-.8.7-1.3,1.2-1.8,1.4-.8,1.8-1.3.7-1.4,1.2-1.9.6-1.4,1.1-1.9.8-1.4,1.1-1.8c.8-1.1.8-.8,1.6-1.5.6-.4,1.3-.7,1.9-1.1s1.3-.7,1.9-1,1.4-.5,2-.7,1.5,0,2.1-.1,1.4.1,2.1.2,1.5-.1,2.1,0,1.3.7,1.9,1,1.7-.2,2.3,0,1.2,1.4,1.8,1.5c.8.2,1.2-.6,1.6-1.3s.6-.9.7-1.9c0-.7.8-1.5.7-2.2s-1.1-1.2-1.4-1.8-.5-1.2-1.1-1.7-.9-1.4-1.6-1.7-1.5,0-2.2-.1-1.3.6-2.1.8-1.4-.3-2.2,0-1.1.9-1.8,1.2-1.1.9-1.7,1.2-1.6,0-2.2.4-.8,1.2-1.4,1.6-1.4.5-1.9,1-1.2.7-1.7,1.2-1,1-1.5,1.5ZM299.4,163.5c-.4-.6-1-1-1.1-1.8s.2-1.4.3-2.2-.3-1.5-.1-2.3.9-1.3,1.1-2-.2-1.7,0-2.4,1.5-.9,1.8-1.6.3-1.6.7-2.2,1-1.1,1.4-1.7.7-1.5,1.2-1.9c.7-.6,1.6-.6,2.2-.5.7,0,1.5.2,2.2.7s1,1.1,1.6,1.7.9,1.3,1.3,1.9c.7,1.1,1.8.6,2,1.7-.2.5-.9,1.4-1.3,2.1s-1.2.9-1.6,1.5-.2,1.5-.7,2.1-1.2.8-1.7,1.4-1,1-1.4,1.6-.3,1.7-.8,2.1-1.7.3-2.2.8-1,1-1.6,1.3-1.2.7-1.8.7-.9-.4-1.4-1.1ZM351.4,154.6c-.4-1-.3-.7-.1-1.9s.6-1.2.8-2,0-1.5.2-2.2,1-1,1.4-1.6.3-1.7.8-2.2,1.6-.1,2.3-.4,1.1-1,1.9-1,1.4.2,2.1.3c.9.2,1.8.4,2,.9s-.4,1.3-.8,2-.4,1.2-.9,1.8-1,.9-1.5,1.4-1.1.8-1.6,1.3-.5,1.6-1.1,2-1.4.6-1.9.9-1.5.1-2.1.3-1,.5-1.5.3Z"/>
          </g>
          <path class="cls-4" d="M296.7,177.6s-5.4,6.1-6.8,10.6c-1.3,4.2-2.6,6.1-4.2,8.3-3.3,4.5,4.2-10.2,6.3-13.2s1.8-3.3,2.4-5.1"/>
          <path class="cls-4" d="M324.3,105.4c1.6-7.9,1.9-10.1,1.6-12.1-.3-2-.8-4.4-.4-5.4.4-1,.6-.3.8,3.5s-.3,6.1-.4,9.3c0,3.3-.6,6.4-.6,6.4"/>
          <path class="cls-4" d="M323.6,75.3c.1,1.7.3,3.4.8,5.2.5,1.8,1.2-1.6.5-3.1-.7-1.5-.3-6.1-.6-7.2-.3-1.1-1.3-2.1-.8,5.1Z"/>
          <path class="cls-2" d="M498.7,87c5.8-5,5.8-6,5.4-6.6-4.4,4-6.4,6.4-5.4,6.6Z"/>
          <path class="cls-2" d="M500.7,85.3c2.5-2.7,5.8-6,5.4-6.6-4.4,4-6.4,6.4-5.4,6.6Z"/>
          <path class="cls-2" d="M507.3,77.6c5.3-5.2,11.5-11,11.5-12.5-4.4,4.6-11.1,10.8-11.5,12.5Z"/>
          <path class="cls-2" d="M445.3,180.6v4.8c0,1.5,0,3.3.3,4.8s2.4-1.2,1.5-3.6-1.2-2.4-.3-7.5-1.2-4.2-.6-8.7-.9,10.2-.9,10.2Z"/>
          <path class="cls-2" d="M648.9,126.4c-7.2-4.8-6.4-6.4-13.6-11.2s13.6,11.2,13.6,11.2Z"/>
          <path class="cls-2" d="M632.9,113.6c0,2.9-8.6-5.9-8.6-5.9l6.1,5.1,2.5.8Z"/>
          <path class="cls-2" d="M738.5,161.6c-.8-5.6,0-2.4-.8-12.8-.8-10.4.6-13.9-.8-16-1.5-2.2,1.4-4.8-.1,8.8-1.6,13.6,1.7,20,1.7,20Z"/>
          <path class="cls-2" d="M735.7,121.3c0-6.6-.4-11.7,0-9.6.1.9.3,4.3.4,5.7s-.4,5.7-.4,3.9Z"/>
          <path class="cls-2" d="M717.1,177c.6,2.6,3.4,5.2,5.4,7.8-1.2-2.5-3.2-5.7-5.4-7.8Z"/>
          <path class="cls-2" d="M728.4,192.5c-.8.4.3,1.8.8,1.1-.5-.4-.2-.7-.8-1.1Z"/>
          <path class="cls-2" d="M715.5,173.6c.4,1.1,1.7,2.2,1.2,3.3-1.7-2.3-3.8-4.6-6.1-5.6"/>
          <path class="cls-4" d="M788.8,135.7c6.8,4.3,8.7,5.5,10.6,5.9,2,.4,4.4.9,5.1,1.6s0,.6-3.6-.6c-3.6-1.2-5.6-2.5-8.6-3.8-3-1.3-5.7-2.9-5.7-2.9"/>
          <path class="cls-4" d="M813.4,146.1c-1.6-.5-3.3-.9-5.2-1.2-1.9-.2,1,1.7,2.7,1.6,1.7-.1,5.7,2,6.9,2.1,1.2.1,2.4-.5-4.5-2.6Z"/>
          <path class="cls-2" d="M557.9,130.2c0,1.3,1.9,1.3,2.4.6-1-1.6.5-2.3,1.3-3.2-.8-1.2-1.8-.3-2.8,0,.2,1.4-.2,2.2-.9,2.6Z"/>
          <path class="cls-2" d="M564.9,125.3c1.3-.8,5.8-.7,5.8-2.8-1.8.9-3.9,1.5-5.8,2.2v.6Z"/>
          <path class="cls-2" d="M573.8,120.9c.8.9,2.1-.3,1.5-1.3-1.2-.2-1.1.8-1.5,1.3Z"/>
          <path class="cls-2" d="M577,118.2c.6.4,1.2.4,1.7,0,0-.5,0-1-.4-1.1-.9-.1-.8.9-1.3,1.1Z"/>
          <path class="cls-2" d="M796.9,181.2c-1.2,0-3.2-1.4-3.8.4.6.9,1.1.3,1.6.4,1.5,2.3,3.3.7,2.2-.8Z"/>
          <path class="cls-2" d="M788.7,180.4c.2-.1.2-.3,0-.4-1.8-1.1-3.5-.9-5.4-2.9-.9,3,3.6,2.6,5.3,3.3Z"/>
          <path class="cls-2" d="M781.5,178.2c.2-.2,0-.4.2-.5-.9-.2-1.8-1.6-2.7-1.8-.6.8-1.2,1.4-1.9,1.6,1.5.7,2.9.6,4.3.7Z"/>
          <path class="cls-2" d="M512.3,149.1c-.6-.9-2.7-1.3-3.7-1.1.9.7,2.3.9,3.7,1.1Z"/>
          <path class="cls-2" d="M507.2,147.6c-1.3-.7-3.1-1-5.1-1.1,1.2.8,2.9,1.2,5.1,1.1Z"/>
        </g>
        <g>
          <path class="cls-3" d="M132.5,125.2l-7.1-25.2-7.7-27.2-4.8-14.7-6.5-10.5-6-1.7-2.3,15-4.5-10.6-4.5-2.3h-6.2l-4.4,5.8.4,13.9-3.1-6.2-11.9-4.8-2.8,4.8s-1.6,12.2-1.3,13.3c.3,1.1-12.1-5.7-12.1-5.7l-4.5,3.8,3.1,18-15.7-2.4,2.4,12.1,15.3,20.1,29.5,17,24.7,9.9,11.1-8.2,6-10.1,1.9-4.5,17.3,9.2,1.4,11.2,1.5,7.7,15.5,2.9,8.8-4,4.2-8.7-1.5-10.9-9-6.3-5.7,7.2-3.7-1.5-14.6-5-3.1-1.3Z"/>
          <path class="cls-3" d="M221.7,57.8l-14.6,8.7s0,16.3-.2,16.6c0,.4,2.5,12.8,2.5,12.8l4.3,13,9.2,4.1,11,.8,10.1-3.2,6.3-4.7,10-11.5,4.3-9.3,1.4-3.8-8-6.4-11-9.5-5.9-4.2-7.1-2.1-12.3-1.2Z"/>
          <g>
            <path class="cls-2" d="M174.9,62.7c-1,1.2-2.8,1.5-4.6,1.8-.2,1.2.5,1.6.4,2.7-1,.4-2.2.5-1.9,2.1.5.6,1.7-.3,1.9.7,0,1.3-1.6.8-1.4,2.3.5-.1.9-.4,1.4-.5.4,0,0,.9.2,1.2,1.3.4,1.9,1.4,2.1,2.8,1.3.1,2.3.6,3.2,1.1.2,1.5.5,2.9,1.1,4.1,2.4.4,3.4-.6,4.8-1.2.4,1.2-1.5,1.5-1.6,2.8,3-1.9,4.5-5.1,6.2-8.3.1-.6-.2-.7-.4-1.1.2-.5.7-.7.9-1.2-1.1-2,1.2-3,1.9-4.2-1.6-3-4.9-5.1-4.4-9.6-1.5.1-1.7,1.6-3,1.9-1.9-.4-1.7-2.9-4.4-2.5-1.3,1.4-3.4,2.3-2.3,5.1Z"/>
            <path class="cls-2" d="M104.7,62.7c.5,0,1,0,.9-.5-.5-.2-.8,0-.9.5Z"/>
            <path class="cls-2" d="M50.7,78.8c-1.2,0-1.3,1.8-.5,2.3,1.5-.9,2.2.5,3,1.2,1.2-.7.3-1.7,0-2.7-1.3.2-2.1-.2-2.5-.9Z"/>
            <path class="cls-2" d="M105.9,81c.8.8,1,3.1,2.7,2.5.3-1-.4-1-.7-1.4.7-2.5-1.5-2.8-1.9-1.1Z"/>
            <path class="cls-2" d="M225.6,84.1c.6-.4.3-1.5.2-2.1h-.9c-.4.7-.2,2.2.7,2.1Z"/>
            <path class="cls-2" d="M55.3,85.4c.7,1.2.7,5.5,2.7,5.5-.8-1.7-1.4-3.7-2.1-5.5h-.5Z"/>
            <path class="cls-2" d="M110.3,87.3c-.2,0-.3,0-.4.2.3,2,1.5,3.1,1.2,5.7,2.7-1.2-.3-4.1-.9-5.8Z"/>
            <path class="cls-2" d="M113.2,93.9c-.3,0-.3.2-.5.2.4.7,0,2.3.4,3,1,0,1.8,0,2.3.4-.4-1.5-1.3-2.4-2.1-3.5Z"/>
            <path class="cls-2" d="M59.5,93.9c-.8.8.3,2,1.2,1.4.2-1.1-.8-1-1.2-1.4Z"/>
            <path class="cls-2" d="M62,96.9c-.3.5-.4,1.2,0,1.6.5,0,.9,0,1.1-.4.1-.9-.8-.7-1.1-1.2Z"/>
            <path class="cls-2" d="M35.5,119c-1.3,2.2-2.3,14.9-2.7,17.9.9-2.5,2.8-15,2.7-17.9Z"/>
            <path class="cls-2" d="M88.9,119.9c.6,0,1.7.3,1.6-.5-.7-.2-1.6-.4-1.6.5Z"/>
            <path class="cls-2" d="M31.5,146c-.8-.3-1,1.4-.2,1.2,0-.6.3-.6.2-1.2Z"/>
            <path class="cls-2" d="M194.1,148.9c-.9.5-1.2,2.5-1.1,3.5.7-.9.9-2.2,1.1-3.5Z"/>
            <path class="cls-2" d="M77.6,149.1c-.6-.1-.7.4-.7.9.5,0,.8-.3.7-.9Z"/>
            <path class="cls-2" d="M75.5,151.6c-.3.2-.7.4-.7.9.5,0,.8-.3.7-.9Z"/>
            <path class="cls-2" d="M192.6,153.7c-.7,1.2-.9,3-1.1,4.8.8-1.1,1.1-2.8,1.1-4.8Z"/>
            <path class="cls-2" d="M72.8,154.2c-.6.2-1.3.3-1.4,1.1.5-.3,1.3-.4,1.4-1.1Z"/>
            <path class="cls-2" d="M127.3,158c-.7.1-.2,1.2.4,1.2.1-.6-.2-.9-.4-1.2Z"/>
            <path class="cls-2" d="M230.9,198.1s-4.2.5-5,.3c-.9-.2-5.5-.4-6.8-.2-1.3.2-.4-.4-2-.4s-4.1-.9-4.8-1.3c-.7-.4-4.3-.7-5.9-.4-1.7.4-10.4.4-11.1.4s-4.5-.7-5.4-.7-4.3-.2-5.4-.4c-1.1-.2-4.6,0-5.2-.2-.6-.2-9.1-1.9-10.6-1.5-1.5.4-2.8.2-3.5,0-.7-.2-5-.8-5-.8,2.3,0,0-1.4,1.7-.8,1.2-1.4,2.1-1.6,3.7-2.6-.2-2.2.9-2.3,1.9-3.5.6-.8.9-2,1.4-2.5.4-.3.9-.2,1.2-.5.2-.3,0-.8.4-1.2.3-.5,1-.6,1.2-1.1.6-1.2.4-2.6,1.2-3.9,2.2.2,3.4,1.1,5,1.2.6-.8.7-2,.7-3.4-.7-.5-1.6-.7-2.3-1.1-1.2,2.4-5.8,1.6-6-1.2-2.2-.7-5.5.4-6.7-1.4-2.6.1-3.5-1.4-5-2.3-1.7,0-2.5-.8-3.5-1.4-.4.2-.6.7-1.2.7-.8-1.2-3.1-.8-4.4-1.4-1.1.8-4.3.7-5.7.2-2.2,1.1-6.4.3-8.7.4-.3-.3-.5-.8-1.1-.9-2.4,1.4-3.7-.7-6.2-1.1-1.8-.3-3-.5-4.8-.5-.8,2.5-3.1,3.6-5.1,5-.9-.9-2.1-1.4-3.2-1.9-.5-1.7-.3-3.1-1.4-4.1-2.2.1-2.9-1.8-5-1.2.6-2.5-.6-4-1.1-5.5-4.6-.6-8-1.2-12.2-2.1-.7-.7-1.4-1.1-2.5-1.1-.4-.1-.2-.8-.7-.9-.6,0-.6.3-1.2.2-.5-1.9-2.8-1.6-4.4-1.8-.4-2.2-2.7-2.4-5-2.7-1.2-1.4-4.2-1.8-6-.7-.4-.5.5-1,.2-1.9-3-.7-5-2.4-8.9-2.3-1.6-2.5-5.3-2.9-7.4-4.8-.4-.4.3-1-.2-1.4-2,.8-2.4-1.4-4.2-1.4-2.3-3.5-5.7-5.9-9-8.3,0-.9.5-1.1.4-2.1-.9-.3-1.1-.8-1.1-1.8-1.7-.5-2.5-1.9-3-3.5-2.9-.3-2.3-4.1-5.1-4.4-.5,1-.4,2.6-1.4,3,.4-2.7.6-5.6-.4-7.8-.4,0-.9,0-1.1-.2-.1-1.2.3-1.9.2-3.2-1.1-.7-2.8-.7-2.8-2.5.2-.7,1.3-.4,1.4-1.2-1.8-2.2-9.8-5.7-4.1-8.3.5.4.7,1.1,1.4,1.2,1.1-.5,1.8-2.9.4-3.5-1.7.3-1.9,2.2-4.1,2.1-.2-1.9-.9-3.3-1.9-4.4.3-2.4-1.6-2.7-1.8-4.6,2.4-1.1,4.1-3,6.9-3,1.9,0,3.9,1.3,6,.5.9,1.5,3.2,2.4,5.3,2.1.2-3.4-1.7-5.2-1.2-8.7-1.4-.7-.8-2.5-1.1-3.7-.1-.6-.7-1-.7-1.6,0-1.1.5-2.3,1.1-2.8.5-.6,3.1-1.8,3.7-1.9,3.9-1.1,8.4,1.9,11.5,2.7.3.8.7,1.5,1.2,2.1.7-.6,2,.5,2.5-.4-.1-1-1.2-1.1-1.6-1.8,1.3-2.5-1.2-3.5-.5-5.8-.2-1-1.4-1.1-1.8-1.9-1.2-6.2,3.5-7.2,6.9-9.2.8.4,1.1,1.3,1.6,1.9,1.9.7,3.6,1.7,6.2,1.8,1.3,1.1,3,2.7,5,2.5,1-1.7,1.8-4.4,1.4-6.9,2.1-.6,2.5-3,4.2-3.9,0-.6-.3-.6-.2-1.2,1.2-.5,2.4-1.1,3.2-1.9,4.4.3,7.3,2.1,10.6,3.5,1.5-1.4,1.8-4.7,1.6-7.3,1.3-2.1,4.1.3,6.5-.9.6.2.5,1.2,1.1,1.4.2-.2.8-.2,1.2-.2,2,1.4,5.6,1.2,6.5,3.7-.3,2.1.8,2.8.9,4.4,3.5,2.4,3.9,7.8,6.9,10.6.5,1.7.3,4,2.1,4.2-1,2.8,1.4,5.9.7,9.4,1.2.9,1.7,2.6,2.7,3.7,0,3.6,2.7,4.3,2.7,7.8,2.5,4.2,1.8,11.5,2.1,16.3.8.9.7,2.8.7,4.6.3.5.6,1.1.9,1.6.2,5,3.3,9.2,5.8,11.7.4.4,1.3.6,1.9.5.4.9,1.6,1.1,2.5,1.6,1.6,2.3,2.5,5.3,4.6,7.1,1.9.8,4.1,1.3,6.2,1.9,3.6-1.4,3.6-7.3,4.1-11.3,1.4-2.1,3.5-7.1.4-8.9,0-2.3-.4-4.2-1.9-5-.1-.7.2-1,.2-1.6-1-.7-1-2.1-1.6-3-.7-1-2-1.9-1.6-4.1-3-3-2.4-8.9-3.7-13.3-.9-.8-1.7-1.3-1.9-2.3-.4-1.8.9-4.3.7-6.2,0-.7-.7-1.5-.7-2.1,0-1.3,1-2.7,0-3.7.8-1,.3-2.3.7-3.4.7-2,3.2-3.2,2.7-5.7-1,0-2.3-.1-3,.2-.5-1.3,2.3-1,3.2-1.1.6-.4.6-1.4.5-2.5,1.5-3.1,3.9-5.3,5.7-8.1.6,0,1,.3,1.4.5,6.3-1.4,9.8-5.7,15-8.1,2.2,2,4.7-.2,6-1.6,2-10.3,0-15.1.5-20.6,1,.5.8,1.7.9,2.7.3,4.4-.3,14.3.4,18h1.2c.3.7.1,1.8.4,2.5,2.9,1.5,8.2.5,9.9,3.9-2.1,0-3.8.4-5.3-.2-1-.4-1.3-1.3-2.3-1.4-4.9-.8-6.9,5.7-12.7,4.1-1.2,3.6-4.4,5.2-4.8,9.6-1.1,1.1-2.1,3-1.1,5-2.1,1.4-.8,3.7.9,4.6.8,2.7,2.1,5.7,2.5,8.7,0,.7.9.9,1.1,1.4.2.4-.1,1.1,0,1.6.1.5.8,1.2,1.1,1.9.6,1.6,1.4,3,1.6,4.2.2,1.2-.2,2.6.2,3.7.4,1,1.4,1.4,1.8,2.5.3,0,.8-.7.7,0v2.5c.9,3,3.2,4.1,5.1,6,.9.9,1.5,1.8,2.1,2.3,1.4,1,3.3,1.8,3.9,3.5.4,1.3,0,2.6.4,4.1-.8.9-1.2,2.1-1.9,3-3.9-.6-6.4,2.3-10.6,1.4,0,.2-.2.4-.5.4-1.6,3.7.3,7.3.2,11.5,1,.5.9,2.1,1.2,3.2,0,.4.8,0,.9.4,0,1.7.3,2.5.7,3.7.3.8.5,1.7.7,2.1.3.7.9.6.9,1.4,0,1.2-1.3,1.8-2.1,2.8,0,1.2.9.8.9,1.8,0,1.3-2,1.7-1.8,3.4-.8.6-1.8,1-3.4.9-1.9,3.3-.9,8.5-5.7,9-1.6,3.2-4,5.5-7.4,6.9-.8-.3-1.5-1.3-2.5-1.4-.9-.1-1.4.4-2.3.5-3,.4-4.7-.5-6.7-1.9-.6,0-1.2.3-1.9.2-.6-1.1-2-1.3-3.7-1.2,0-.6.4-.7,0-1.1-1.7,0-2.5-.8-4.1-.9.3-1.3-.8-2.2-1.2-3.2-2.5-.1-5.2,1.1-8.1.5-.7-.4-.7-1.4-1.2-1.9-1.5.5,0,1.8-.2,3-.2.5-1.1.4-1.2.9.2,1.7-.5,3.2-.7,5,2.5,1.6,5.4-.1,7.4,1.6,3.4.3,7.6-1.5,10.8-.2,2.2-.4,5.9.2,8.3.7.6,0,.6-.6,1.1-.7.4,1.5,2.3,1.5,3.4,2.3.5.8-.4,1.4,0,1.9,1.2-.4,1.6-2.5,3-2.7.8,0,1.7.8,2.5.9.8,0,1.8-.5,2.7-.5,2.8-.2,5.8.6,8.7.2,0,.7-.3,1-.2,1.8,1.4.9,2.8,1.2,4.6.5,1.6-3.5,4.1-2.4,5.5.5,3.3.3,7.7.5,9.6-1.2.4.2.7.5,1.4.4,1.4-1.4,4.5-.2,5.8-1.8.6,0,.6.5,1.2.4,1.2-1.6,4.3-1.4,5-3.5.6.2.6,0,1.2,0,.6-1.4,1.6-2.7,1.2-4.4-.2-.8-1.3-1.4-1.6-2.3-.6-1.8-.2-3.8-1.8-4.2.6-4.1-4.1-5.5-4.2-8.1,0-.5.4-1.2.4-1.8-.1-.8-1-1.3-1.2-2.1-.8-3.1,2.3-6.8-.4-9.6.3-3.7,3.8-6.3,1.9-10.4.9-.6,1.5-1,1.1-2.7.7-.9,1.9-1.3,2.7-2.1-.2-.8-1.3-.7-1.4-1.6.5-1.2,0-2.8-.9-3.2,1.1-.3,1.8-1,2.1-1.9-.3-.1-.7-.2-.9-.5.8-1.7.4-3.9.9-5.8.2-.7.8-1.1.9-1.8.2-1.8-.9-3-1.9-4.2-1.7,0-1.9-1.8-3.5-1.9-1-1.7-1.6-3.2-2.5-5.1-.4-.9-1.2-1.7-1.4-2.5-.5-1.7,0-3.6-1.1-5.3-.3-.3-1.2,0-1.4-.4,0-.8.4-1,.5-1.6.6,0,.5.6,1.2.4,1.1-1.9,1.6-4.3,3-5.8-1.5-3.4,3.6-4.5,2.1-8,1.2-2.1,3.5-3.1,3.7-6.2-.8-.5-1.9-.6-2.7-1.1-.1-3.2-2.8-5.2-6-5.8-.6-1.5-2.2-1.9-3.5-2.7,0-.7,0-1.5.4-1.8,1.1-.2,2.5.5,2.8,1.6,3.4.7,5.4,3.7,9.2,3.4,0-.8.2-2.2,1.1-2.7.6.2,1,.7,1.2,1.2-1.5,1.7.5,2.6,1.1,4.1-.4,1-1.9,1.9-1.6,3,.8-.2,1.6-.9,2.7-.4,2.1-1.5,3.3-3.8,5-5.7.1.8-.5,1.5,0,2.1,4.2-.1,8.8-.3,12.9.2,1.8-1.5,2.5-3.9,5.5-4.2-.1,1.7,0,4.3-.9,5.7,1.3.7,2.3,2.3,4.2,1.4,1.7.7,2.5,2.2,5.3,1.8,2.1,1.7,4,3.7,6.9,4.6.1.6.4,1,.7,1.4,1.4.6,2.5,1.6,3.4,2.7,5.5,2.4,8.3,7.3,13.1,10.4.2.4,0,1.2.4,1.6,2.6.4,4,3.2,6.5,4.1.8.3,1.6,0,2.3.2,1.3.3,2.1,1.5,3.5,1.6v1.8c-2.2.3-3.6.4-5.8.7-2,1.9-3.8,4.2-5.3,6.5-1,1.6-1.8,3.2-2.8,4.8-1.9,2.9-5.4,4.5-7.4,7.3,0,.4-.9,0-1.2.2-3.1,1.3-4.9,4.5-7.6,5.8-.6.3-1.5.4-2.1.7-.6.3-1.1.8-1.8,1.1-.4.2-1.1,0-1.6.4-.7.4-1.2,1.4-1.9,1.8-1.9.8-4.2.3-6.2.7-.6.3-.8,1.1-1.6,1.2-2.6-1.2-5.4.2-7.8,0-.6,0-1.2-.6-1.8-.5-1.1,0-2.1,1.2-3.2,1.1-.9-.2-1.1-1.3-1.9-1.9-.6-.4-1.7-1-2.7-1.6-1.6-1-3-1.5-4.8-2.1-2.3.5-2.1,2.2-2.7,4.4-.3,1.2-.7,2.3-.5,3.4.1.6.8,1,1.1,1.6.2.5,0,1.2.2,1.8.2.7.9,1.2,1.2,1.9.7,1.5.9,3.7,1.6,5.3.3.6.8,1.1.9,1.6.4,1.7.3,3.2,1.2,4.4-.5.7-.6,1.9-.5,3.2h1.9c.4,1.9,1.1,4.4.2,6.2.3,1.9.7,4.2.7,5.8,0,5-4,7.6-4.6,12.2.9.2,1.5.7,2.3.9.2.9,0,1.5.2,2.7-.9,1-1.6,3.1-1.9,5.1-.5,3.3-1.2,7.3,0,9.2.6,0,.9-.5,1.8-.4,1,3.3,5.4,2.5,8.3,3.5-.4,2.1-3.8,2.8-5,4.8,1,1.5,2.5,2.6,5,2.7.4,1.7,1.2,3.3,2.8,3.7.6.1,1.2-.2,1.8-.2,1.9.2,3.2,1.7,5,1.8.8-1.1,2.5-2.1,3.7-.8.5,0,1,.1,1.5.1.7-.5,1.5.1,1.8.2.5,0,.9.1,1.4.2l-6.7.5ZM82.2,67.2c3.1-2.3-2-11.9,2.3-12.2,2.7-.2,1.1,2.8.5,3.5.2.8,1.1.9,1.6,1.4v.9c2.1,1.3,3,3.8,4.8,5.3,0,1.3.7,2.2,1.8,2.5-.1-3.6.5-6.5-.5-9,.5-2.7.8-5.5.2-8.8-2.4-1.6-6.6-3-9-.9-2.6,2.2-2.5,7-3.2,11.1,1.2,1.3,1.7,4.2,1.6,6.2ZM121.8,102.2c-.9-3.2-1-7.2-2.8-9.4,0-1.2-.2-2.1-1.1-2.3,0-.4.2-.7.4-1.1-2.2-2.9-2.6-7.7-4.4-11,1.1-3-.7-6.6-2.1-8.7,1.4-3.5-3.5-4.2-2.5-8-.7-1.8-2.1-2.8-2.1-5.1-1.8-.8-.8-6.8-3-6.5-1.1.1-.7,1.2-.9,2.5-.3,1.8-1.8,5-1.2,7.6.1.5.6.8.9,1.4,1.3,2.9.7,7,1.6,10.4.2.6.9,1.2,1.1,1.8.1.5-.1,1,0,1.4.5,1.3,1.8,2.1,1.2,3.5-.3.8-1.2.9-1.4,1.2,1.7,7.3,4.6,13.5,8.3,18.8.1,1,.7,2.2,0,3,0,.6.8.4.9.9.9,5.1,1.6,10.4,3.9,14.2.7.3,1.3.7,2.3.7,1.7,1.2,1.3,3.8,1.9,5.3,1.5-1.8,4.2-6.5,1.8-8.8,0-1.3,1.1-3.7-1.1-3.4-1.1-2.1-.2-6.3-2.5-7.3.2-.6.4-1,.9-1.2ZM208.9,59.4c2,.9,2.8-.9,3.9-1.6-1.2-.8-3.9-.5-3.9,1.6ZM65.9,59.4c.2,3.2,3.6,3.4,3.5,6.9,2.1.3,2.1,3.1,3.7,3.4-3.2,2-.2,5,1.8,6.2-1.3,1.4,1,3.7,1.8,1.8.8-.2.6.7,1.4.5v-1.8c-2-.8-.5-3.2-1.2-5-.8-.6-1.8-1-2.7-1.6-.5-2.4,0-3.9-.2-6.5-1.7-2.2-4.6-4.6-8.1-3.9ZM85.2,60.2h-.4c-1.6,1.3,1.3,3.5,0,5.1,1.5,2.6,1.4,6.7,3.2,9,.3-1.7.8-3.3.5-5.5-2.1-1.9-2.8-5.7-3.4-8.7ZM243.1,83.6c.7,0,.5-.8,1.2-.7,7.4,0,12.1-2,18.6-2.1-1.4-3.6-6.1-3.9-8.5-6.5-2.6-1-3.8-3.4-6.4-4.4-1.3-2.7-2.5-5.4-5.5-6.4-.6,0-.8.4-1.4.4-1.3-.4-2.4-1.2-2.8-2.5-3.7.3-4.9,3.2-8.1,3.9-.9-.6-2.3-.7-3.4-.2-.8,0-1.4-.9-2.5-.5-.6.2-1.1.8-1.8,1.1-2,.7-5.8-.5-6.7,1.4-.6,2.3-.3,4.9-1.1,6.7,2.6,3.8,0,8.3.5,12.6.5.4.7-.6,1.2-.7.2.7.3,1.6,1.1,1.8,2.1-.8,4.4-.8,6.9-1.4.6-.7.8-2.1,2.1-2.5.7-.2,2,.1,3.2,0,1.2-.1,2.3-.7,3.2-.7.8,0,1.6.3,2.3.2.8,0,1.6-.6,2.5-.7,2.3-.2,4.2.1,5.3,1.4ZM216,64.8c-.5.4-1.3,1.2-.9,1.9.8-.1,1.2-1.3.9-1.9ZM98.3,127c-.2-1.8-1.4-2.5-2.5-3.4,1.9-1.3-.1-3.4-1.4-4.1-.1-.9.3-1.3.2-2.3-1.3,0-1.4-1.3-2.8-.7,0-3-4.1-1.8-4.6-4.2-.9,0-1.3-.5-1.9-.7-.9-.1-1,.6-1.8.2-.3-.4.2-1.2-.2-1.8-4.2,1.3-1.5-6.4-5.7-6-1.6-1.2.1-5.8-3.2-5.3-.2-1,.7-.7.5-1.6-.4,0-.7-.3-1.2-.2-.9-.7-1.9-1.3-2.7-2.1-.3-2-1.4-3.1-3-3.7,0-2-1-2.7-2.5-3.2,0-3.8-3.1-4.5-3.2-8.1-1.2-.6-1.8-1.9-2.8-2.7h-1.4c-.7-2.2-3.6-2.2-5-3.7-1.4.5-2.3-.5-2.7-1.6-1,0-1.7-.3-2.5-.5-2.4,2,.1,5.2,1.6,6.5-.2.8-1.6.5-2.3.4-.8,1.7-.1,4.8,1.8,5-.6,3,.5,5,2.5,5.8,0,.6,0,1.2.2,1.6,2.8,1.5,3.2,5.4,6,6.9-.1,3.6,4,3,4.6,5.8,2.1-.3,2.2,1.4,3.9,1.4.4-.5,0-1.4,0-1.9.7.5,1.3,1.1,1.9,1.8-.4,1.6.2,2.2,1.2,2.8.6,0,.4-.6,1.1-.5.5.7.5,1.7.9,2.5,1-.2,1.5,1,2.1.2.6,1.2,1.9.9,2.8,1.9,0,1-1.5.6-1.2,1.9,2.5-1.6,4.9-.3,6.2,1.6.6,0,.3-.9.9-.9,2.7.8,3.9,3.1,5.8,4.6,0,.7-1.3.1-1.6.5,0,.2,0,.3-.2.4.7,1.5,1.9,2.6,1.9,4.8h.9c0,.4-.4.9,0,1.2,1.4.1,2.7.4,4.1,1.2,1.2.7,1.3,1.9,2.5,1.9,1.1,0,1.8-.9,2.7-1.8ZM103.6,74.1c-.6.2-.7,1.1-.5,1.6h.9c0-.7-.1-1.2-.4-1.6ZM96.5,77.4c-.7,0-1.1,1.7-.2,1.6,0-.6.3-.9.2-1.6ZM76.9,80.2c.6.1.8-.1,1.2-.2v-.5c-.4-.4-1.5-.2-1.2.7ZM79,82c-.2.4-.6,1.1-.2,1.6h.9c.2-.4.5-.7.4-1.4-.2-.2-.6-.2-1.1-.2ZM253.5,101.1c1-1.5,1.1-3.8,1.9-5.5,2-.4,2.7-2.1,3.7-3.5-1.1-1.2-.6-4.3-.2-5.3-1.4-.5-1.5,1-2.7,1.4-2.4.8-5.7-.6-8.3.4-1.7-.7-5.1-1.6-6.5,0-3.1-.7-7.5-3.2-10.3-.7-2.3,0-3.9.7-5,1.9-3,1.5-6.6,2.5-10.1,3.5.7.6,1.1,1.4,2.5,1.4.1,1.1-.7,1.3-1.1,1.9-.3,3.1-1,5.7.5,8.3.2.4.8.6,1.1,1.1.4.8.4,1.5.9,2.1.2.3.6.2.9.5.5.5,1,1.6,1.9,1.6,1.3,0,2.7-1.9,4.2-2.7.5-.2,1.1-.2,1.4-.4,1.3-.8,1.8-2.2,3.4-2.5-.7,2-3.1,2.2-3.9,4.1-1.4,0-2.3.8-2.8,1.8.5,1.7,3.2,1.8,3.7,0,.6.4,1.3.6,1.9.9,1.8-.6,3.4.8,5.3-.2.5-.4-.1-1.2.2-1.4,2-1.3,2.7.9,4.1.9,1.3,0,1.7-2.2,2.7-2.8.4-.3,1.4-.4,2.1-.9.6-.4,1-1.1,2.5-.9,2.1-1,3.4-2.8,4.4-5,.6,0,1,0,1.4-.2ZM38.5,95.5c0,3.8.4,7.1,1.4,9.7,1.3.2,1.7,1.2,1.9,2.3,3.6,1.3,5,4.6,8.1,6.4-.1.7.3.9.2,1.6,1.9-.5,4.6-.1,4.6,2.3.5-.1.6.2,1.1.2.9,1.8,1.9,3.5,4.1,4.1.7.8,1.4,1.6,3,1.6.9,1.1,2,2,2.8,3.2,3.1.6,4.1,4,7.6,3.2.5.3.8.8,1.2,1.2,2.7-.8,6.2.7,8.5-.9-2.9-3.7-7.3-6-10.3-9.6-.4,0-.4-.3-.9-.2-2.9-2.9-6.8-4.7-8.3-9-1.7.2-1.7-1.3-3.2-1.4-.5-2.1-2.5-2.7-3.9-3.9-1.4-1.2-1.8-3.2-2.7-5.1-2.3.4-2.2-1.6-4.1-1.8-.9,0-.5,1.2-1.4,1.2-.7-.5,0-2.2,0-3.2-1.9-2.3-6.7-4-9.9-1.9ZM33,94.4h-.7c-.2.6.8.2.9.5.6-.2-.5,0-.2-.5ZM36.7,96.4c-.8.2,0,1.7,0,2.3.7-.6.1-1.6,0-2.3ZM80.1,96.9c-.3.2-.6.3-.5.9.5.2.5.2,1.1,0,.2-.7-.4-.6-.5-.9ZM37.2,99.5c-.8,0-.6,1.4.2,1.2.4-.4,0-.9-.2-1.2ZM210.2,103.4h-1.1c-.9.8-.8,2.6-.2,3.7,1.9-.4,1.5-2,1.2-3.7ZM124.1,123.3c.3.1.4.3.5.5,3,.2,2.5-2.5,2.7-5-2.3-1.6-2.7,2.5-3.2,4.4ZM120.1,119.4c-.3.3-.4,0-.9,0,0,.4.3.5.4.9.3-.2.6-.3.5-.9ZM118.7,123.1c.7.4,2.1,0,2.8.4,1.6-3.1-3-3.6-2.8-.4ZM119.4,124.7c-2-1.2-4.4-2-6.9-2.7-1.4,2.5.8,5.2,1.6,7.6,1.7.1,1.9-1.7,2.7-2.7.8-1,2-1.2,2.7-2.3ZM166.3,148.2c.5-2.8-.2-5.1,1.4-7.1,0-.6-.5-.8-.4-1.6-2.7-1.6-4-4.6-5.8-7.1-1.9.5-3,1.7-3.7,3.4-1.1.4-2.3.7-3.2,1.2-3-.7-5.3-2.1-6-5.1-.8-.2-1.2-.9-2.5-.7-.2.8,0,2.2.5,2.8-.5,2.7-.3,4.7-.5,7.6-.1.5-1,.3-1.1.9,0,2.6,1.2,3.7,1.8,5.7,2.9,2,6.8,5.1,11.7,3.7,2.4-.7,3.6-3.6,6-4.1.8,0,1,.5,1.8.4ZM122.7,132.5c-1.7,1.7-2.9,4.7-3,7.4,1-.7,1.4-1.9,1.9-3,1.4-.8,3.2-3.1,1.1-4.4ZM84.7,135.6c1.3,1.2,3.9.6,5-.4-.4-2.7-4.6-1.7-5,.4ZM89.1,137.1c1.2.7,2.7,1.1,4.4,1.2-1.3-.9-3.7-4.4-4.4-1.2ZM120.1,144.7c-1.1.9.1,2.7.7,3.5h1.2c.3-.5.1-1.5.2-2.3-.6-.5-1.7-.6-2.1-1.2ZM192.5,176.9c-.8-2.6,1.7-4.8,1.4-8-3.5.9-8.5,1.9-9.6,5.8.6,2.3-1,3.2-1.1,5.3.8.8,1.7,1.3,3,.7.6.1.7.8,1.1,1.1-.1.9-.6.8-.7,1.6,0,.9.8,1.6.7,2.5,0,.7-1,1.2-1.1,1.9-.2,2.1,4.4,7.1,6.7,5.3.7.3.8,1.2,1.4,1.6,1.2-.4,2.2-1.1,3.9-1.1.6-1.3,1.1-1.6.5-3-.2-.6-1.5-1.1-1.6-1.8,0-1.1,1.2-1.4,1.8-2.1,1-1.3,1.8-3.9,3.5-5,.5-.3,1.1,0,1.6-.5,0-.4.3-.5.4-.9,0-.9-.8-.8-.7-1.6,1.4-2.3.7-5-.9-6.5.6-1.9-.6-3.9-2.1-4.6-.2,0-1,0-1.2,0-.9-.2-1.4-1.1-1.9-1.1-3,.2-3.6,8.1-5.1,10.3Z"/>
          </g>
          <path class="cls-4" d="M177.2,11.4c0,1.6-.9,3.2-.6,5,.4,1.7,2.4-1.4,1.7-2.9-.6-1.5,0-5.7-.2-6.8-.2-1.1-1.2-2-.9,4.8Z"/>
        </g>
      </g>
    </g>
  </g>
</svg>